<svg width="10" height="11" fill="none" xmlns="http://www.w3.org/2000/svg"><path d="M5.09 10.418c0 .05-.04.089-.09.089a.984.984 0 01-.982-.982c0-.05.039-.09.09-.09.05 0 .088.04.088.09 0 .44.363.803.804.803.05 0 .09.04.09.09zM9.642 8.81c-.826-.697-1.786-1.947-1.786-4.642 0-1.072-.887-2.244-2.366-2.461a.536.536 0 10-.982 0c-1.479.217-2.366 1.39-2.366 2.46 0 2.696-.96 3.946-1.786 4.643a.72.72 0 00.714.715h2.5c0 .787.642 1.428 1.429 1.428s1.429-.641 1.429-1.428h2.5a.72.72 0 00.714-.715z" fill="#FEFEFE"/></svg>