<svg width="400" height="348" fill="none" xmlns="http://www.w3.org/2000/svg"><path d="M289.282 37.5c-15.056-4.22-16.87-9.262-20.759-17.99-1.73 9.591-2.768 17.99-11.071 17.99 0 0 0-26.294 26.294-26.294 26.295 0 26.295 27.679 26.295 27.679-9.366-1.204-14.889-4.846-20.759-11.072v9.688zm-17.411 160.714l1.254 38.84-12.054-8.036-2.592-2.679c5.497-4.258 7.004-7.941 6.696-12.053 8.036 4.018 8.538-14.706 2.679-13.393v-9.375L255.8 178.125l-22.768 2.679-6.696 10.714-1.339 9.375-2.679 1.339c-1.439 8.27-.881 11.539 5.357 12.054.561 4.515 2.948 6.886 6.697 10.714-1.522 4.928-5.555 7.362-13.393 10.714v-37.5s-1.34-25.446 25.446-25.446c26.785 0 25.446 25.446 25.446 25.446z" fill="#A8ABFF"/><path d="M271.871 198.214c-9.064-1.165-12.053-9.374-12.053-9.374-10.133 4.578-15.337 3.9-24.107-1.339 0 0-9.097 9.461-12.054 10.714 0 0-4.018-25.447 22.768-25.447 26.785 0 25.446 25.446 25.446 25.446z" fill="#A8ABFF"/><path d="M271.871 198.214l1.254 38.84-12.054-8.036-2.592-2.679c5.497-4.258 7.004-7.941 6.696-12.053 8.036 4.018 8.538-14.706 2.679-13.393v-9.375L255.8 178.125l-22.768 2.679-6.696 10.714-1.339 9.375-2.679 1.339c-1.439 8.27-.881 11.539 5.357 12.054.561 4.515 2.948 6.886 6.697 10.714-1.522 4.928-5.555 7.362-13.393 10.714v-37.5s-1.34-25.446 25.446-25.446m25.446 25.446s1.339-25.446-25.446-25.446m25.446 25.446c-9.064-1.165-12.053-9.374-12.053-9.374-10.133 4.578-15.337 3.9-24.107-1.339 0 0-9.097 9.461-12.054 10.714 0 0-4.018-25.447 22.768-25.447m42.857-135.267c-15.056-4.22-16.87-9.263-20.759-17.991-1.73 9.591-2.768 17.99-11.071 17.99 0 0 0-26.294 26.294-26.294 26.295 0 26.295 27.679 26.295 27.679-9.366-1.204-14.889-4.846-20.759-11.072v9.688z" stroke="#A8ABFF" stroke-linecap="round" stroke-linejoin="round"/><path d="M308.926 40.536v-2.768c0-13.758-8.304-24.91-24.911-24.91s-24.911 11.152-24.911 24.91v5.535m51.61 5c0 13.758-7.435 24.91-16.607 24.91" stroke="#000577"/><path d="M302.521 56.004v-.5a.5.5 0 00-.478.352l.478.148zm1.814-13.234l-.495-.072a.5.5 0 00.495.572v-.5zm-39.002 13.234l.477-.148a.499.499 0 00-.477-.352v.5zm-1.814-13.234v.5a.5.5 0 00.494-.572l-.494.072zm60.372 43.996l.275-.417a.688.688 0 00-.036-.022l-.239.44zm2.437 6.76a.5.5 0 001 0h-1zm-30.357-27.203a.5.5 0 10-.96.28l.96-.28zm-52.008 20.444l-.239-.44a.43.43 0 00-.036.022l.275.417zm-3.438 6.76a.5.5 0 001 0h-1zm64.67-55.34a.5.5 0 10-.999-.035l.999.035zm-41.538-.035a.5.5 0 10-.999.035l.999-.035zm57.937 101.493a.501.501 0 00-.334-.943l.334.943zm-16.452 5.294l-.166-.471.166.471zm-4.615-4.383l.479.142-.479-.142zm.073-.248l-.479-.142.479.142zm-4.616-4.383l-.166-.471.166.471zm-16.451 5.295a.5.5 0 00.334.942l-.334-.942zm-43.616 153.799a.5.5 0 00-.409.913l.409-.913zm9.552 4.821l-.204.456.204-.456zm2.766-3.318l.486-.114-.486.114zm-.045-.187l-.486.114.486-.114zm2.766-3.318l-.204.456.204-.456zm9.552 4.821a.5.5 0 00.409-.913l-.409.913zM133.719 59.637a.499.499 0 10-.831-.555l.831.555zm-6.35 8.612l-.416-.278.416.278zm-4.108-1.336l.473-.163-.473.163zm-.062-.183l-.473.163.473-.163zm-4.108-1.336l.416.278-.416-.278zm-6.35 8.612a.5.5 0 10.831.555l-.831-.555zm34.692 129.447a.5.5 0 10-.088.996l.088-.996zm10.603 1.438l-.044.498.044-.498zm.799 4.244l.37.337-.37-.337zm-.13.143l-.369-.337.369.337zm.8 4.245l.044-.498-.044.498zm10.603 1.438a.5.5 0 00.088-.996l-.088.996zM32.484 245.264a.5.5 0 00-.685-.729l.685.729zm57.253 22.567a.5.5 0 00-.998.052l.998-.052zm77.754-33.903v-.5.5zm-69.278 0v.5-.5zm73.214 3.936h-.5.5zm0 22.85h.5-.5zm-7.143 7.143v-.5.5zm-73.214 0v.5-.5zM1.784 178.571v-.5a.5.5 0 00-.5.5h.5zm34.332 0l.497-.056a.5.5 0 00-.497-.444v.5zm228.305 35.562v-.5a.5.5 0 00-.478.353l.478.147zm1.755-12.806l-.494-.072a.499.499 0 00.494.572v-.5zm-37.744 12.806l.478-.147a.5.5 0 00-.478-.353v.5zm-1.755-12.806v.5a.5.5 0 00.495-.572l-.495.072zm58.424 42.577l.275-.418c-.011-.007-.023-.015-.036-.021l-.239.439zm2.343 5.485a.5.5 0 001 0h-1zm-29.346-25.273a.5.5 0 10-.96.28l.96-.28zm-50.346 19.788l-.239-.439a.424.424 0 00-.036.021l.275.418zm-3.343 5.485a.5.5 0 001 0h-1zm62.616-52.497a.5.5 0 10-.999-.035l.999.035zm-40.198-.035a.499.499 0 10-.999.035l.999-.035zm1.243-137.928c0 30.849 25.008 55.857 55.857 55.857v-1c-30.297 0-54.857-24.56-54.857-54.857h-1zm55.857 55.857c30.849 0 55.857-25.008 55.857-55.857h-1c0 30.296-24.561 54.857-54.857 54.857v1zm55.857-55.857c0-30.85-25.008-55.858-55.857-55.858v1c30.296 0 54.857 24.56 54.857 54.858h1zM283.927 3.07c-30.849 0-55.857 25.008-55.857 55.858h1c0-30.297 24.56-54.858 54.857-54.858v-1zm18.116 52.785c-.735 2.383-2.533 5.986-5.523 8.984-2.981 2.99-7.13 5.367-12.593 5.367v1c5.783 0 10.175-2.524 13.302-5.66 3.117-3.128 4.993-6.878 5.77-9.396l-.956-.295zm.478.648c1.887 0 3.33-.927 4.321-2.272.981-1.332 1.528-3.08 1.676-4.803.147-1.72-.099-3.47-.766-4.814-.673-1.353-1.811-2.345-3.417-2.345v1c1.114 0 1.961.663 2.521 1.79.566 1.139.801 2.696.665 4.284-.136 1.587-.638 3.146-1.484 4.295-.838 1.137-2.002 1.865-3.516 1.865v1zm-37.666-.353c.886 2.874 3.208 7.364 7.186 10.696l.642-.767c-3.802-3.185-6.031-7.496-6.873-10.224l-.955.295zm7.186 10.696c2.994 2.506 6.93 4.36 11.886 4.36v-1c-4.686 0-8.401-1.747-11.244-4.127l-.642.767zm-6.708-11.343c-1.515 0-2.679-.728-3.516-1.865-.847-1.149-1.349-2.708-1.485-4.295-.136-1.588.1-3.145.665-4.284.561-1.127 1.407-1.79 2.522-1.79v-1c-1.607 0-2.744.992-3.417 2.345-.668 1.343-.914 3.094-.766 4.814.147 1.722.694 3.471 1.676 4.803.99 1.345 2.434 2.272 4.321 2.272v-1zm34.28 18.636l24.039 13.066.478-.879-24.04-13.066-.477.88zm24.003 13.044c.791.521 1.475 1.525 1.964 2.732.485 1.197.748 2.523.748 3.61h1c0-1.229-.293-2.682-.821-3.986-.524-1.294-1.309-2.51-2.341-3.191l-.55.835zm-28.125-20.72l-.48.14.001.001.001.004.004.013.014.049a17.302 17.302 0 00.279.834c.195.546.485 1.294.865 2.102.747 1.59 1.885 3.513 3.401 4.511l.55-.835c-1.267-.835-2.309-2.531-3.046-4.101a22.816 22.816 0 01-1.04-2.636l-.052-.168-.013-.042a.03.03 0 01-.003-.01l-.001-.002-.48.14zm-27.728 6.797l-24.039 13.066.477.879 24.04-13.066-.478-.879zm-24.075 13.09c-1.033.68-1.817 1.897-2.342 3.191-.528 1.304-.821 2.757-.821 3.987h1c0-1.088.263-2.415.748-3.611.489-1.207 1.174-2.21 1.965-2.732l-.55-.835zm28.674-19.886l-.48-.14v.003a.05.05 0 00-.003.01l-.013.042-.053.168a23.449 23.449 0 01-1.039 2.636c-.738 1.57-1.779 3.266-3.047 4.101l.55.835c1.516-.998 2.655-2.92 3.402-4.511a24.161 24.161 0 001.158-2.985l.004-.013.001-.004v-.001l-.48-.14zm31.973-23.693l.495.072v-.002l.001-.005.002-.017.009-.064.032-.25c.026-.217.063-.534.102-.94.079-.81.17-1.97.219-3.377l-.999-.035a53.852 53.852 0 01-.215 3.316 37.498 37.498 0 01-.138 1.212l-.002.014-.001.003v.001l.495.072zm-40.816 0l.494-.072v-.004l-.002-.014a1.445 1.445 0 01-.008-.06l-.031-.237c-.025-.21-.061-.52-.1-.915a54.664 54.664 0 01-.215-3.316l-.999.035c.049 1.407.14 2.567.219 3.378a38.709 38.709 0 00.135 1.189l.008.065.003.017.001.004v.002l.495-.072zm36.018 30.542c-5.902 4.783-10.488 7.172-15.162 7.212-4.676.04-9.564-2.27-16.07-7.221l-.606.796c6.546 4.98 11.661 7.468 16.685 7.425 5.028-.043 9.841-2.62 15.782-7.435l-.629-.777zM156.641 50c0 14.083 11.417 25.5 25.5 25.5v-1c-13.531 0-24.5-10.969-24.5-24.5h-1zm25.5 25.5c14.083 0 25.5-11.417 25.5-25.5h-1c0 13.531-10.969 24.5-24.5 24.5v1zm25.5-25.5c0-14.083-11.417-25.5-25.5-25.5v1c13.531 0 24.5 10.97 24.5 24.5h1zm-25.5-25.5c-14.083 0-25.5 11.417-25.5 25.5h1c0-13.53 10.969-24.5 24.5-24.5v-1zm17.357 107.643c0 10.138 8.219 18.357 18.357 18.357v-1c-9.586 0-17.357-7.771-17.357-17.357h-1zm18.357 18.357c10.139 0 18.357-8.219 18.357-18.357h-1c0 9.586-7.771 17.357-17.357 17.357v1zm18.357-18.357c0-10.139-8.218-18.357-18.357-18.357v1c9.586 0 17.357 7.771 17.357 17.357h1zm-18.357-18.357c-10.138 0-18.357 8.218-18.357 18.357h1c0-9.586 7.771-17.357 17.357-17.357v-1zm88.786 171.928c0 10.139 8.219 18.357 18.357 18.357v-1c-9.586 0-17.357-7.771-17.357-17.357h-1zm18.357 18.357c10.138 0 18.357-8.218 18.357-18.357h-1c0 9.586-7.771 17.357-17.357 17.357v1zm18.357-18.357c0-10.138-8.219-18.357-18.357-18.357v1c9.586 0 17.357 7.771 17.357 17.357h1zm-18.357-18.357c-10.138 0-18.357 8.219-18.357 18.357h1c0-9.586 7.771-17.357 17.357-17.357v-1zm-150.5 50.5c0 14.083 11.417 25.5 25.5 25.5v-1c-13.531 0-24.5-10.969-24.5-24.5h-1zm25.5 25.5c14.083 0 25.5-11.417 25.5-25.5h-1c0 13.531-10.969 24.5-24.5 24.5v1zm25.5-25.5c0-14.083-11.417-25.5-25.5-25.5v1c13.531 0 24.5 10.969 24.5 24.5h1zm-25.5-25.5c-14.083 0-25.5 11.417-25.5 25.5h1c0-13.531 10.969-24.5 24.5-24.5v-1zM321.26 138.702l-16.284 5.766.333.942 16.285-5.765-.334-.943zm-20.254 1.996l.074-.248-.959-.284-.074.248.959.284zm-5.188-5.244l-16.285 5.766.334.942 16.284-5.765-.333-.943zm5.262 4.996c.946-3.19-2.126-6.107-5.262-4.996l.333.943c2.367-.838 4.684 1.362 3.97 3.769l.959.284zm3.896 4.018c-2.367.837-4.684-1.363-3.97-3.77l-.959-.284c-.946 3.19 2.126 6.107 5.262 4.996l-.333-.942zm-69.468 151.464l9.757 4.364.408-.912-9.756-4.365-.409.913zm13.213.476l-.044-.188-.973.229.044.188.973-.229zm2.031-2.935l9.756 4.365.409-.913-9.757-4.365-.408.913zm-2.075 2.747c-.214-.911.032-1.763.475-2.295.438-.525 1.024-.709 1.6-.452l.408-.913c-1.072-.479-2.118-.064-2.776.725-.651.781-.964 1.957-.68 3.164l.973-.229zm-3.412 4.076c1.072.48 2.118.065 2.776-.724.651-.781.964-1.957.68-3.164l-.973.229c.214.911-.032 1.763-.476 2.295-.437.525-1.023.709-1.599.452l-.408.912zM132.888 59.082l-5.935 8.889.832.555 5.934-8.89-.831-.554zm-9.154 7.668l-.062-.182-.946.325.062.182.946-.325zm-5.059-1.633l-5.934 8.89.831.554 5.935-8.889-.832-.555zm4.997 1.45c-.403-1.172-1.294-2-2.261-2.315-.977-.318-2.083-.112-2.736.865l.832.555c.35-.525.945-.68 1.594-.47.659.215 1.321.805 1.625 1.69l.946-.324zm3.281 1.404c-.35.525-.945.68-1.594.47-.659-.215-1.321-.805-1.625-1.69l-.946.324c.403 1.173 1.294 2.001 2.261 2.316.977.318 2.083.112 2.736-.865l-.832-.555zm20.392 136.478l10.647.94.088-.996-10.647-.94-.088.996zm11.121 4.35l-.13.142.739.674.13-.143-.739-.673zm.995 5.222l10.647.94.088-.996-10.647-.94-.088.996zm-1.125-5.08c-.836.916-1.135 2.095-.947 3.095.19 1.01.901 1.881 2.072 1.985l.088-.996c-.629-.056-1.051-.503-1.177-1.174-.128-.681.072-1.544.703-2.236l-.739-.674zm-.344-3.552c.629.055 1.05.502 1.177 1.173.128.681-.072 1.545-.703 2.237l.739.673c.835-.916 1.135-2.095.947-3.095-.191-1.009-.902-1.881-2.072-1.984l-.088.996zM3.07 125c0 31.835 25.808 57.643 57.643 57.643v-1C29.43 181.643 4.07 156.283 4.07 125h-1zm57.643 57.643c31.835 0 57.643-25.808 57.643-57.643h-1c0 31.283-25.36 56.643-56.643 56.643v1zM118.356 125c0-31.835-25.808-57.643-57.643-57.643v1c31.283 0 56.643 25.36 56.643 56.643h1zM60.713 67.357C28.878 67.357 3.07 93.165 3.07 125h1c0-31.283 25.36-56.643 56.643-56.643v-1zM20.927 269.643c0 19.014 15.414 34.429 34.429 34.429v-1c-18.462 0-33.429-14.967-33.429-33.429h-1zm34.429 34.429c19.014 0 34.428-15.415 34.428-34.429h-1c0 18.462-14.966 33.429-33.428 33.429v1zm-23.557-59.537c-6.691 6.28-10.872 15.206-10.872 25.108h1c0-9.614 4.058-18.28 10.557-24.379l-.685-.729zm57.985 25.108c0-.608-.015-1.212-.047-1.812l-.998.052c.03.583.045 1.17.045 1.76h1zm77.707-36.215H98.213v1h69.278v-1zm3.436 4.436v22.85h1v-22.85h-1zm-6.643 29.493H91.07v1h73.214v-1zm-73.214 0c-49.035 0-88.786-39.751-88.786-88.786h-1c0 49.588 40.199 89.786 89.786 89.786v-1zm79.857-6.643a6.643 6.643 0 01-6.643 6.643v1a7.643 7.643 0 007.643-7.643h-1zm-3.436-26.286a3.436 3.436 0 013.436 3.436h1a4.436 4.436 0 00-4.436-4.436v1zm-69.278-1c-31.845 0-58.084-24.009-61.6-54.913l-.993.113c3.573 31.404 30.233 55.8 62.593 55.8v-1zM1.784 179.071h34.332v-1H1.784v1zm187 35.214c0 31.836 25.807 57.643 57.643 57.643v-1c-31.283 0-56.643-25.36-56.643-56.643h-1zm57.643 57.643c31.835 0 57.642-25.807 57.642-57.643h-1c0 31.283-25.359 56.643-56.642 56.643v1zm57.642-57.643c0-31.835-25.807-57.642-57.642-57.642v1c31.283 0 56.642 25.36 56.642 56.642h1zm-57.642-57.642c-31.836 0-57.643 25.807-57.643 57.642h1c0-31.282 25.36-56.642 56.643-56.642v-1zm17.516 57.343c-.711 2.304-2.45 5.788-5.34 8.688-2.883 2.891-6.894 5.189-12.176 5.189v1c5.602 0 9.856-2.446 12.884-5.483 3.019-3.029 4.835-6.66 5.588-9.099l-.956-.295zm.478.647c1.832 0 3.233-.899 4.195-2.204.952-1.292 1.481-2.988 1.624-4.656.143-1.667-.095-3.365-.743-4.668-.652-1.313-1.758-2.278-3.321-2.278v1c1.071 0 1.885.636 2.426 1.723.546 1.099.774 2.602.642 4.137-.131 1.534-.616 3.04-1.434 4.149-.808 1.096-1.93 1.797-3.389 1.797v1zm-36.466-.352c.858 2.783 3.107 7.132 6.959 10.358l.642-.767c-3.677-3.079-5.833-7.249-6.646-9.886l-.955.295zm6.959 10.358c2.9 2.428 6.713 4.224 11.513 4.224v-1c-4.53 0-8.123-1.689-10.871-3.991l-.642.767zm-6.482-11.006c-1.459 0-2.581-.701-3.389-1.797-.817-1.109-1.303-2.615-1.434-4.149-.131-1.535.097-3.038.642-4.137.541-1.087 1.355-1.723 2.426-1.723v-1c-1.563 0-2.668.965-3.321 2.278-.648 1.303-.886 3.001-.743 4.668.143 1.668.673 3.364 1.625 4.656.961 1.305 2.362 2.204 4.194 2.204v-1zm33.167 18.066l23.264 12.644.477-.878-23.264-12.645-.477.879zm23.227 12.623c1.615 1.063 2.618 2.98 2.618 5.067h1c0-2.398-1.152-4.641-3.068-5.903l-.55.836zm-27.208-20.066l-.48.14v.001l.001.004.004.013.014.047.056.176a23.232 23.232 0 001.052 2.668c.723 1.539 1.826 3.403 3.298 4.372l.55-.835c-1.223-.805-2.23-2.443-2.943-3.962a22.2 22.2 0 01-1.056-2.711l-.013-.041-.002-.01-.001-.002-.48.14zm-26.841 6.564l-23.264 12.645.477.878 23.264-12.644-.477-.879zm-23.3 12.666c-1.916 1.262-3.068 3.505-3.068 5.903h1c0-2.087 1.003-4.004 2.618-5.067l-.55-.836zm27.758-19.23l-.48-.14v.002a.04.04 0 00-.003.01l-.013.041a16.697 16.697 0 01-.255.763 22.2 22.2 0 01-.801 1.948c-.713 1.519-1.72 3.157-2.943 3.962l.551.835c1.471-.969 2.574-2.833 3.297-4.372a23.232 23.232 0 001.053-2.668l.055-.176.014-.047.004-.013.001-.004v-.001l-.48-.14zm30.941-22.929l.495.072v-.002l.001-.005.002-.016.009-.063.031-.241c.026-.211.061-.518.099-.91.077-.785.165-1.908.212-3.27l-.999-.035a52.17 52.17 0 01-.208 3.208 33.599 33.599 0 01-.126 1.115l-.008.057-.002.014v.004h-.001l.495.072zm-39.499 0l.495-.072v-.001l-.001-.003-.002-.014-.008-.057a38.59 38.59 0 01-.126-1.115 52.985 52.985 0 01-.208-3.208l-.999.035c.047 1.362.136 2.485.212 3.27.038.392.073.699.099.91l.031.241.009.063.002.016.001.005v.002l.495-.072zm34.846 29.544c-5.711 4.628-10.146 6.937-14.662 6.975-4.521.039-9.247-2.194-15.543-6.984l-.605.796c6.335 4.82 11.288 7.23 16.156 7.188 4.872-.041 9.533-2.538 15.283-7.198l-.629-.777z" fill="#000577"/><path d="M98.213 123.214h69.279a3.936 3.936 0 003.936-3.936v-22.85a7.143 7.143 0 00-7.143-7.142H91.071c-49.311 0-89.286 39.974-89.286 89.285h33.929c0-34.517 27.982-55.357 62.5-55.357z" fill="#A8ABFF" stroke="#A8ABFF" stroke-linecap="round" stroke-linejoin="round"/><path d="M287.677 43.304a2.768 2.768 0 105.535 0 2.768 2.768 0 00-5.535 0zm-16.608 0a2.768 2.768 0 105.535 0 2.768 2.768 0 00-5.535 0zm-19.284 160.268a2.678 2.678 0 105.356 0 2.678 2.678 0 00-5.356 0zm-16.072 0a2.678 2.678 0 105.356 0 2.678 2.678 0 00-5.356 0zM82.142 39.286a3.571 3.571 0 107.143 0 3.571 3.571 0 00-7.143 0zm50 260.714a3.571 3.571 0 107.143 0 3.571 3.571 0 00-7.143 0z" fill="#000577"/><path d="M258.6 40.179l-.062-.497.062.497a5.035 5.035 0 015.617 4.377l1.023 8.24a5.036 5.036 0 01-4.377 5.618l-.154.019.062.496-.062-.496a5.035 5.035 0 01-5.617-4.377l-1.023-8.24a5.036 5.036 0 014.377-5.618l.154-.02zm51.018.019a5.037 5.037 0 014.378 5.617l-1.023 8.24a5.036 5.036 0 01-5.618 4.378l-.153-.02a5.035 5.035 0 01-4.377-5.617l1.023-8.24a5.035 5.035 0 015.617-4.377l.153.019zm-17.554 35.284a2.267 2.267 0 11.001-4.535 2.267 2.267 0 01-.001 4.535z" fill="#A8ABFF" stroke="#A8ABFF"/><circle cx="350.856" cy="298.287" r="48.643" fill="#fff" stroke="#202588"/><path d="M353.35 272.001c2.389 0 4.326 1.407 4.326 3.143v16.323h16.322c1.736 0 3.143 1.936 3.143 4.325v2.704c0 2.389-1.407 4.325-3.143 4.325h-16.322v16.323c0 1.736-1.937 3.143-4.326 3.143h-2.703c-2.389 0-4.326-1.407-4.326-3.143v-16.323h-16.323c-1.735 0-3.143-1.936-3.143-4.325v-2.704c0-2.389 1.408-4.325 3.143-4.325h16.323v-16.323c0-1.736 1.937-3.143 4.326-3.143h2.703z" fill="#6277D7"/><path d="M346.321 291.467h-16.323c-1.735 0-3.143 1.936-3.143 4.325v2.704c0 2.389 1.408 4.325 3.143 4.325h16.323m0-11.354v-16.323c0-1.736 1.937-3.143 4.326-3.143h2.703c2.389 0 4.326 1.407 4.326 3.143v16.323m-11.355 0v11.354m11.355-11.354h16.322c1.736 0 3.143 1.936 3.143 4.325v2.704c0 2.389-1.407 4.325-3.143 4.325h-16.322m0-11.354v11.354m0 0v16.323c0 1.736-1.937 3.143-4.326 3.143h-2.703c-2.389 0-4.326-1.407-4.326-3.143v-16.323" stroke="#6277D7" stroke-linecap="round" stroke-linejoin="round"/></svg>