<svg width="166" height="144" fill="none" xmlns="http://www.w3.org/2000/svg"><path d="M120.326 15.469c-6.21-1.74-6.959-3.82-8.563-7.421-.714 3.956-1.142 7.421-4.567 7.421 0 0 0-10.846 10.847-10.846 10.846 0 10.846 11.417 10.846 11.417-3.863-.497-6.141-1.999-8.563-4.567v3.996zm-7.182 66.294l.517 16.022-4.972-3.315-1.069-1.105c2.267-1.757 2.889-3.276 2.762-4.972 3.315 1.657 3.522-6.066 1.105-5.525v-3.867l-4.972-5.524-9.392 1.105-2.762 4.42-.553 3.866-1.105.553c-.593 3.411-.363 4.76 2.21 4.972.231 1.863 1.216 2.84 2.763 4.42-.628 2.032-2.292 3.036-5.525 4.42v-15.47s-.553-10.496 10.496-10.496c11.05 0 10.497 10.496 10.497 10.496z" fill="#A8ABFF"/><path d="M113.144 81.763c-3.739-.48-4.972-3.867-4.972-3.867-4.18 1.889-6.326 1.61-9.944-.552 0 0-3.752 3.903-4.972 4.42 0 0-1.658-10.497 9.391-10.497 11.05 0 10.497 10.496 10.497 10.496z" fill="#A8ABFF"/><path d="M113.144 81.763l.517 16.022-4.972-3.315-1.069-1.105c2.267-1.757 2.889-3.276 2.762-4.972 3.315 1.657 3.522-6.066 1.105-5.525v-3.867l-4.972-5.524-9.392 1.105-2.762 4.42-.553 3.866-1.105.553c-.593 3.411-.363 4.76 2.21 4.972.231 1.863 1.216 2.84 2.763 4.42-.628 2.032-2.292 3.036-5.525 4.42v-15.47s-.553-10.496 10.496-10.496m10.497 10.496s.553-10.496-10.497-10.496m10.497 10.496c-3.739-.48-4.972-3.867-4.972-3.867-4.18 1.889-6.326 1.61-9.944-.552 0 0-3.752 3.903-4.972 4.42 0 0-1.658-10.497 9.391-10.497m17.679-55.798c-6.21-1.74-6.959-3.82-8.563-7.421-.714 3.956-1.142 7.421-4.567 7.421 0 0 0-10.846 10.847-10.846 10.846 0 10.846 11.417 10.846 11.417-3.863-.497-6.141-1.999-8.563-4.567v3.996z" stroke="#A8ABFF" stroke-linecap="round" stroke-linejoin="round"/><path d="M128.43 16.72v-1.14c0-5.676-3.426-10.276-10.276-10.276s-10.276 4.6-10.276 10.275v2.284m21.29 2.062c0 5.675-3.067 10.276-6.85 10.276" stroke="#000577"/><path d="M125.788 23.102v-.5a.5.5 0 00-.478.352l.478.148zm.748-5.46l-.494-.071a.5.5 0 00.494.572v-.5zm-16.088 5.46l.478-.148a.5.5 0 00-.478-.352v.5zm-.748-5.46v.5a.5.5 0 00.495-.571l-.495.072zm24.903 18.15l.275-.418a.312.312 0 00-.036-.022l-.239.44zm.712 2.788a.5.5 0 001 0h-1zm-11.947-11.304a.5.5 0 10-.96.28l.96-.28zm-21.735 8.515l-.239-.44a.688.688 0 00-.036.023l.275.417zm-1.712 2.789a.5.5 0 101 0h-1zm27.264-22.817a.5.5 0 10-.999-.036l.999.035zm-17.134-.036a.5.5 0 00-1 .035l1-.035zm23.703 42.153a.5.5 0 00-.334-.942l.334.942zm-6.884 1.907l-.167-.471.167.471zm-1.904-1.808l.479.143-.479-.143zm.03-.102l-.479-.142.479.142zm-1.904-1.808l-.167-.471.167.471zm-6.884 1.907a.5.5 0 00.334.943l-.334-.943zm-17.774 63.451a.5.5 0 10-.408.913l.408-.913zm3.82 2.257l-.204.456.204-.456zm1.141-1.369l.487-.114-.487.114zm-.018-.077l-.487.114.487-.114zm1.141-1.369l-.204.457.204-.457zm3.82 2.257a.5.5 0 10.408-.913l-.408.913zM56.402 24.763a.5.5 0 00-.832-.555l.832.555zm-2.864 3.39l-.416-.278.416.278zm-1.694-.551l.473-.163-.473.163zm-.026-.076l-.473.163.473-.163zm-1.694-.55l.415.277-.416-.278zm-2.864 3.388a.5.5 0 10.831.556l-.831-.556zm14.58 53.268a.5.5 0 10-.088.996l.088-.996zm4.348.885l-.044.499.044-.499zm.33 1.751l.37.337-.37-.337zm-.054.06l-.37-.338.37.337zm.33 1.75l.044-.498-.044.498zm4.348.886a.5.5 0 00.088-.996l-.088.996zm-56.543 12.422a.5.5 0 00-.684-.73l.684.73zm23.71 9.079a.5.5 0 10-1 .052l1-.052zm31.78-13.97v-.5.5zm-28.578 0v.5-.5zm30.201 1.624h-.5.5zm0 9.426h.5-.5zm-2.946 2.946v-.5.5zm-30.201 0v.5-.5zm-36.83-36.83v-.5a.5.5 0 00-.5.5h.5zm14.161 0l.497-.057a.5.5 0 00-.497-.443v.5zm94.176 14.669v-.5a.5.5 0 00-.478.353l.478.147zm.724-5.283l-.495-.072a.5.5 0 00.495.572v-.5zm-15.57 5.283l.478-.147a.5.5 0 00-.477-.353v.5zm-.723-5.283v.5a.5.5 0 00.494-.572l-.494.072zm24.1 17.563l.275-.417a.695.695 0 00-.036-.022l-.239.439zm.672 2.263a.5.5 0 001 0h-1zm-11.529-10.508a.5.5 0 00-.96.28l.96-.28zm-21.05 8.245l-.239-.439a.515.515 0 00-.036.022l.275.417zm-1.673 2.263a.5.5 0 001 0h-1zm26.417-21.645a.5.5 0 10-.999-.035l.999.035zm-16.582-.035a.5.5 0 00-1 .035l1-.035zm-.075-56.885c0 12.888 10.448 23.335 23.335 23.335v-1c-12.335 0-22.335-10-22.335-22.335h-1zm23.335 23.335c12.888 0 23.335-10.447 23.335-23.335h-1c0 12.335-10 22.335-22.335 22.335v1zm23.335-23.335c0-12.887-10.447-23.335-23.335-23.335v1c12.335 0 22.335 10 22.335 22.335h1zM118.118.973c-12.887 0-23.335 10.448-23.335 23.335h1c0-12.335 10-22.335 22.335-22.335v-1zm7.192 21.981c-.291.943-1.01 2.386-2.205 3.585-1.187 1.191-2.827 2.128-4.987 2.128v1c2.48 0 4.363-1.085 5.695-2.422 1.324-1.328 2.12-2.918 2.453-3.996l-.956-.295zm.478.648c.888 0 1.565-.441 2.019-1.057.445-.603.683-1.38.748-2.13.064-.748-.041-1.528-.346-2.142-.311-.625-.865-1.13-1.673-1.13v1c.316 0 .579.177.777.575.204.41.298.995.245 1.611-.052.615-.246 1.203-.556 1.623-.3.408-.699.65-1.214.65v1zm-15.818-.353c.379 1.229 1.364 3.133 3.057 4.55l.642-.766c-1.517-1.27-2.409-2.997-2.743-4.079l-.956.295zm3.057 4.55c1.279 1.072 2.968 1.868 5.091 1.868v-1c-1.853 0-3.321-.69-4.449-1.634l-.642.766zm-2.579-5.197c-.515 0-.913-.242-1.214-.65-.309-.42-.503-1.008-.556-1.623-.053-.616.041-1.201.245-1.61.198-.4.462-.576.777-.576v-1c-.807 0-1.362.505-1.673 1.13-.305.614-.409 1.394-.345 2.142.064.75.303 1.527.747 2.13.454.616 1.131 1.056 2.019 1.056v-1zm14 8.239l9.917 5.39.477-.88-9.916-5.389-.478.879zm9.88 5.368c.256.168.509.52.7.991.187.463.287.973.287 1.38h1c0-.549-.13-1.186-.36-1.755-.227-.56-.58-1.124-1.077-1.451l-.55.835zm-11.44-8.793l-.479.14v.003l.002.006.007.022.025.08a10.173 10.173 0 00.462 1.172c.311.66.809 1.52 1.507 1.98l.55-.835c-.45-.296-.851-.93-1.152-1.571a9.09 9.09 0 01-.415-1.052l-.021-.066-.005-.016-.001-.003-.48.14zm-11.578 2.546l-9.916 5.39.478.879 9.916-5.39-.478-.879zm-9.952 5.412c-.497.327-.85.892-1.076 1.451a4.852 4.852 0 00-.36 1.755h.999c0-.407.1-.917.287-1.38.192-.472.445-.823.7-.991l-.55-.835zm11.99-7.958l-.48-.14-.001.003-.005.016-.02.066a9.746 9.746 0 01-.415 1.052c-.302.641-.703 1.275-1.153 1.571l.55.835c.699-.46 1.197-1.32 1.508-1.981.161-.344.284-.662.367-.893.042-.117.073-.212.095-.279l.025-.079.006-.021.002-.007.001-.002-.48-.14zm13.188-9.773l.495.072v-.002l.001-.002.001-.008.004-.028.013-.106a21.786 21.786 0 00.135-1.806l-.999-.036c-.02.564-.056 1.028-.088 1.35-.015.16-.03.286-.04.37a4.256 4.256 0 01-.015.118l-.001.005.494.073zm-16.836 0l.495-.072v-.001l-.001-.005a21.748 21.748 0 01-.143-1.837l-1 .034c.021.588.059 1.072.092 1.412.016.17.032.303.043.395l.014.106.003.028.002.008v.003l.495-.071zm14.672 12.37c-2.422 1.963-4.248 2.894-6.071 2.91-1.827.015-3.777-.886-6.449-2.92l-.606.796c2.712 2.064 4.889 3.142 7.063 3.123 2.179-.018 4.23-1.136 6.693-3.132l-.63-.777zm-59.053-9.388c0 5.972 4.841 10.813 10.813 10.813v-1c-5.42 0-9.813-4.394-9.813-9.813h-1zm10.813 10.813c5.971 0 10.812-4.841 10.812-10.813h-1c0 5.42-4.393 9.813-9.812 9.813v1zm10.812-10.813c0-5.972-4.84-10.812-10.812-10.812v1c5.419 0 9.812 4.393 9.812 9.812h1zM76.132 9.813c-5.972 0-10.813 4.84-10.813 10.812h1a9.812 9.812 0 019.813-9.813v-1zm6.866 44.696a7.866 7.866 0 007.866 7.866v-1a6.866 6.866 0 01-6.866-6.866h-1zm7.866 7.866a7.866 7.866 0 007.866-7.866h-1a6.866 6.866 0 01-6.866 6.866v1zm7.866-7.866a7.866 7.866 0 00-7.866-7.866v1a6.866 6.866 0 016.866 6.866h1zm-7.866-7.866a7.866 7.866 0 00-7.866 7.866h1a6.866 6.866 0 016.866-6.866v-1zm36.33 71.214a7.866 7.866 0 007.866 7.866v-1a6.866 6.866 0 01-6.866-6.866h-1zm7.866 7.866a7.866 7.866 0 007.866-7.866h-1a6.866 6.866 0 01-6.866 6.866v1zm7.866-7.866a7.866 7.866 0 00-7.866-7.866v1a6.866 6.866 0 016.866 6.866h1zm-7.866-7.866a7.866 7.866 0 00-7.866 7.866h1a6.866 6.866 0 016.866-6.866v-1zm-62.375 21.125c0 5.972 4.841 10.812 10.813 10.812v-1c-5.42 0-9.813-4.393-9.813-9.812h-1zm10.813 10.812c5.971 0 10.812-4.84 10.812-10.812h-1c0 5.419-4.393 9.812-9.812 9.812v1zm10.812-10.812c0-5.972-4.84-10.812-10.812-10.812v1c5.419 0 9.812 4.393 9.812 9.812h1zm-10.812-10.812c-5.972 0-10.813 4.84-10.813 10.812h1c0-5.419 4.393-9.812 9.813-9.812v-1zm49.922-63.366l-6.717 2.378.334.943 6.717-2.379-.334-.942zm-7.975 1.184l.03-.103-.958-.284-.031.102.959.285zm-2.52-2.524l-6.717 2.378.334.943 6.717-2.378-.334-.943zm2.55 2.421c.459-1.546-1.03-2.96-2.55-2.421l.334.943a.973.973 0 011.258 1.194l.958.284zm1.228 1.297a.973.973 0 01-1.258-1.194l-.959-.285c-.459 1.546 1.03 2.96 2.551 2.422l-.334-.943zM98.026 122.34l4.024 1.8.409-.912-4.025-1.801-.408.913zm5.856-.139l-.018-.077-.974.228.018.078.974-.229zm.432-.875l4.024 1.8.408-.913-4.024-1.8-.408.913zm-.45.798c-.068-.289.013-.546.135-.692.116-.139.223-.147.315-.106l.408-.913c-.588-.263-1.155-.024-1.491.379-.329.395-.478.976-.341 1.56l.974-.228zm-1.814 2.016c.588.264 1.155.025 1.491-.378.33-.396.478-.976.341-1.561l-.974.229a.804.804 0 01-.135.691c-.116.139-.223.148-.314.107l-.409.912zM55.57 24.208l-2.448 3.667.832.555 2.448-3.667-.832-.555zm-3.253 3.231l-.026-.075-.946.325.026.075.946-.325zm-2.61-.741l-2.447 3.666.831.556 2.448-3.667-.831-.555zm2.584.666c-.195-.568-.63-.98-1.12-1.14-.499-.162-1.105-.062-1.463.474l.831.555c.056-.084.151-.133.323-.078a.807.807 0 01.483.514l.946-.325zm.831.51c-.056.085-.15.134-.322.078a.806.806 0 01-.483-.513l-.946.325c.195.568.63.98 1.12 1.14.498.162 1.105.062 1.463-.474l-.832-.555zm8.63 56.754l4.392.388.088-.997-4.392-.387-.088.996zm4.397 1.303l-.054.06.739.673.053-.059-.738-.674zm.601 2.645l4.392.388.088-.996-4.392-.388-.088.996zm-.655-2.586c-.405.444-.558 1.023-.462 1.53.097.515.475 1 1.117 1.056l.088-.996c-.1-.009-.19-.068-.222-.246a.806.806 0 01.218-.67l-.74-.674zm.05-.974c.1.008.188.068.222.245a.806.806 0 01-.218.67l.738.674c.405-.444.558-1.023.463-1.529-.097-.515-.476-1-1.118-1.057l-.088.996zM1.97 51.562c0 13.295 10.777 24.072 24.072 24.072v-1C13.3 74.634 2.97 64.304 2.97 51.562h-1zm24.072 24.072c13.294 0 24.07-10.777 24.07-24.072h-1c0 12.743-10.328 23.072-23.07 23.072v1zm24.07-24.072c0-13.294-10.776-24.07-24.07-24.07v1c12.742 0 23.07 10.329 23.07 23.07h1zm-24.07-24.07c-13.295 0-24.072 10.776-24.072 24.07h1c0-12.741 10.33-23.07 23.072-23.07v-1zM9.337 111.227c0 8.005 6.49 14.495 14.496 14.495v-1c-7.454 0-13.496-6.042-13.496-13.495h-1zm14.496 14.495c8.005 0 14.495-6.49 14.495-14.495h-1c0 7.453-6.042 13.495-13.495 13.495v1zm-9.918-25.067a14.458 14.458 0 00-4.578 10.572h1c0-3.882 1.638-7.38 4.262-9.842l-.684-.73zm24.413 10.572c0-.256-.006-.51-.02-.763l-.998.052c.012.235.018.472.018.711h1zm31.76-15.232H41.511v1h28.577v-1zm1.124 2.123v9.426h1v-9.426h-1zm-2.446 11.872H38.565v1h30.2v-1zm-30.201 0c-20.065 0-36.33-16.266-36.33-36.33h-1c0 20.617 16.713 37.33 37.33 37.33v-1zm32.647-2.446a2.446 2.446 0 01-2.446 2.446v1a3.446 3.446 0 003.446-3.446h-1zm-1.124-10.55c.621 0 1.124.504 1.124 1.124h1c0-1.173-.95-2.123-2.124-2.123v1zm-28.577-1c-12.985 0-23.684-9.79-25.118-22.39l-.993.112c1.49 13.101 12.612 23.279 26.111 23.279v-1zM1.734 74.162h14.162v-1H1.734v1zm76.844 14.232c0 13.294 10.777 24.071 24.071 24.071v-1c-12.742 0-23.071-10.329-23.071-23.071h-1zm24.071 24.071c13.295 0 24.072-10.777 24.072-24.071h-1c0 12.742-10.33 23.071-23.072 23.071v1zm24.072-24.071c0-13.294-10.777-24.072-24.072-24.072v1c12.742 0 23.072 10.33 23.072 23.072h1zM102.649 64.32c-13.294 0-24.071 10.778-24.071 24.072h1c0-12.742 10.33-23.072 23.071-23.072v-1zm6.945 23.862c-.281.91-.975 2.304-2.13 3.463-1.146 1.15-2.73 2.054-4.815 2.054v1c2.405 0 4.232-1.053 5.523-2.349 1.283-1.287 2.055-2.828 2.378-3.874l-.956-.294zm.478.647c.865 0 1.525-.43 1.967-1.029.432-.587.664-1.342.726-2.07.062-.726-.039-1.483-.336-2.08-.302-.61-.844-1.104-1.633-1.104v1c.297 0 .548.166.738.548.195.393.286.957.235 1.551-.051.593-.238 1.158-.535 1.562-.289.391-.669.622-1.162.622v1zm-15.323-.353c.367 1.192 1.322 3.038 2.963 4.412l.642-.767c-1.465-1.227-2.327-2.895-2.65-3.94l-.955.295zm2.963 4.412c1.24 1.038 2.878 1.81 4.937 1.81v-1c-1.789 0-3.206-.665-4.295-1.577l-.642.767zm-2.485-5.059c-.493 0-.874-.23-1.162-.622-.297-.404-.484-.97-.535-1.562-.051-.594.04-1.158.235-1.55.19-.383.44-.549.738-.549v-1c-.79 0-1.331.495-1.633 1.103-.297.598-.399 1.355-.337 2.081.063.728.294 1.483.727 2.07.441.6 1.102 1.029 1.967 1.029v-1zm13.541 8.004l9.596 5.216.478-.879-9.597-5.216-.477.879zm9.56 5.194c.577.38.947 1.076.947 1.845h1c0-1.081-.519-2.102-1.397-2.68l-.55.835zm-11.062-8.523l-.48.14v.001l.001.002.001.007.007.02.024.077c.021.065.051.158.092.27.08.225.199.533.356.866.301.641.785 1.476 1.464 1.924l.55-.835c-.431-.284-.818-.893-1.109-1.514a8.992 8.992 0 01-.401-1.016l-.02-.063-.004-.015-.001-.004-.48.14zm-11.213 2.45l-9.596 5.216.478.879 9.596-5.216-.478-.879zm-9.632 5.238c-.879.578-1.398 1.599-1.398 2.68h1c0-.769.37-1.465.948-1.845l-.55-.835zm11.612-7.688l-.48-.14-.001.004a8.908 8.908 0 01-.425 1.094c-.292.62-.678 1.23-1.11 1.514l.55.835c.68-.448 1.164-1.283 1.465-1.924a9.922 9.922 0 00.478-1.233l.002-.007v-.002l-.479-.14zm12.763-9.458l.495.072v-.003l.001-.008.004-.027.013-.103a22.306 22.306 0 00.131-1.75l-.999-.035a22.23 22.23 0 01-.124 1.663 4.042 4.042 0 01-.015.114l-.001.005.495.072zm-16.293 0l.494-.072v-.005l-.004-.022a9.01 9.01 0 01-.05-.45c-.03-.31-.066-.76-.085-1.305l-1 .035a22.267 22.267 0 00.131 1.75l.013.103.004.027.001.008v.003l.496-.072zm14.189 11.96c-2.344 1.899-4.107 2.796-5.866 2.81-1.763.016-3.646-.853-6.23-2.82l-.606.796c2.624 1.997 4.734 3.043 6.845 3.025 2.113-.018 4.103-1.103 6.486-3.035l-.629-.777z" fill="#000577"/><path d="M41.51 50.826h28.577c.897 0 1.624-.727 1.624-1.624v-9.425a2.946 2.946 0 00-2.947-2.947h-30.2c-20.341 0-36.83 16.49-36.83 36.83h13.995c0-14.238 11.543-22.834 25.781-22.834z" fill="#A8ABFF" stroke="#A8ABFF" stroke-linecap="round" stroke-linejoin="round"/><path d="M119.664 17.863a1.142 1.142 0 102.283 0 1.142 1.142 0 00-2.283 0zm-6.851 0a1.142 1.142 0 102.285-.001 1.142 1.142 0 00-2.285 0zm-7.954 66.11a1.104 1.104 0 102.208.002 1.104 1.104 0 00-2.208-.002zm-6.629 0a1.105 1.105 0 102.209 0 1.105 1.105 0 00-2.21 0zM34.88 16.205a1.473 1.473 0 102.947 0 1.473 1.473 0 00-2.946 0zM55.506 123.75a1.473 1.473 0 102.945 0 1.473 1.473 0 00-2.945 0z" fill="#000577"/><path d="M107.707 16.865h0a1.783 1.783 0 011.99 1.55l.422 3.4a1.784 1.784 0 01-1.551 1.99s0 0 0 0l-.063.007a1.783 1.783 0 01-1.989-1.55l-.422-3.4a1.784 1.784 0 011.55-1.989s0 0 0 0l.063-.008zm20.91 0l.062-.496-.062.496.063.008a1.782 1.782 0 011.55 1.99l-.421 3.399a1.784 1.784 0 01-1.99 1.55l-.061.496.061-.496-.063-.008a1.782 1.782 0 01-1.55-1.99l.422-3.399a1.783 1.783 0 011.989-1.55zm-7.142 13.977a.641.641 0 110-1.282.641.641 0 010 1.282z" fill="#A8ABFF" stroke="#A8ABFF"/><circle cx="145.27" cy="123.271" r="19.771" fill="#fff" stroke="#202588"/></svg>