<svg width="10" height="9" fill="none" xmlns="http://www.w3.org/2000/svg"><path d="M10 2.915a3.286 3.286 0 01-.558.486c-.932.63-1.87 1.267-2.779 1.925-.469.346-1.05.77-1.657.77h-.012c-.608 0-1.188-.424-1.657-.77-.91-.664-1.847-1.295-2.773-1.925A3.12 3.12 0 010 2.915v4.431c0 .491.402.893.893.893h8.214A.895.895 0 0010 7.346v-4.43zm0-1.64a.9.9 0 00-.893-.893H.893C.296.382 0 .85 0 1.397c0 .508.564 1.139.96 1.407.865.602 1.74 1.205 2.606 1.813.363.251.976.765 1.428.765h.012c.452 0 1.065-.514 1.428-.765.865-.608 1.741-1.21 2.612-1.813.49-.34.954-.904.954-1.53z" fill="#FEFEFE"/></svg>