<svg width="172" height="153" fill="none" xmlns="http://www.w3.org/2000/svg"><path d="M71.375 24.44a.5.5 0 001 0h-1zm1-7.813a.5.5 0 10-1 0h1zm6.031 7.812a.5.5 0 001 0h-1zm1-7.812a.5.5 0 10-1 0h1zm6.031 7.812a.5.5 0 001 0h-1zm1-7.812a.5.5 0 10-1 0h1zm6.032 7.812a.5.5 0 001 0h-1zm1-7.812a.5.5 0 10-1 0h1zm6.031 7.812a.5.5 0 101 0h-1zm1-7.812a.5.5 0 00-1 0h1zm6.031 7.812a.5.5 0 001 0h-1zm1-7.812a.5.5 0 00-1 0h1zm6.031 7.812a.5.5 0 001 0h-1zm1-7.812a.5.5 0 10-1 0h1zM71.875 38.783a.5.5 0 000 1v-1zm42.969 1a.5.5 0 000-1v1zM71.875 43.47a.5.5 0 000 1v-1zm29.687 1a.5.5 0 100-1v1zm-29.687 3.688a.5.5 0 000 1v-1zm37.5 1a.5.5 0 000-1v1zm-37.5 3.687a.5.5 0 000 1v-1zm42.969 1a.5.5 0 000-1v1zm-42.969 3.688a.5.5 0 000 1v-1zm29.687 1a.5.5 0 100-1v1zM71.875 62.22a.5.5 0 000 1v-1zm37.5 1a.5.5 0 000-1v1zM20.31 53.086l.308.394a.503.503 0 00.044-.038l-.352-.356zm29.682-29.338l.355-.351-.355.351zm.838.848l-.356.352.356-.352zm-.02 3.373l-.351-.356.351.356zm-8.832 8.026a.5.5 0 00.703.712l-.703-.712zm6.337-13.943l-.355.352.355-.352zm-3.372-.02l-.352-.355.352.355zM16.958 49.694l-.352-.356a.52.52 0 00-.04.044l.392.312zm-6.414 8.027l.39.313-.39-.313zm1.665 1.685l-.308-.394.308.394zM62 77.164a.5.5 0 001 0h-1zm54.533 8.994v-.5a.5.5 0 00-.5.5h.5zM12.209 77.664a.5.5 0 000-1v1zm94.822-1a.5.5 0 000 1v-1zm16.906 6.369V23.658h-1v59.375h1zm-3.625-63h-6.25v1h6.25v-1zm-6.25 0h-7.031v1h7.031v-1zm-7.031 0H100v1h7.031v-1zm-7.031 0h-7.031v1H100v-1zm-7.031 0h-7.031v1h7.03v-1zm-7.031 0h-7.032v1h7.031v-1zm-7.032 0h-7.031v1h7.031v-1zm-7.031 0h-6.25v1h6.25v-1zm52.062 3.625a3.624 3.624 0 00-3.625-3.625v1a2.625 2.625 0 012.625 2.625h1zm-3.625 63a3.624 3.624 0 003.625-3.625h-1a2.625 2.625 0 01-2.625 2.625v1zM63 23.658a2.625 2.625 0 012.625-2.625v-1A3.625 3.625 0 0062 23.658h1zm9.375.781v-3.906h-1v3.906h1zm0-3.906v-3.906h-1v3.906h1zm7.031 3.906v-3.906h-1v3.906h1zm0-3.906v-3.906h-1v3.906h1zm7.031 3.906v-3.906h-1v3.906h1zm0-3.906v-3.906h-1v3.906h1zm7.032 3.906v-3.906h-1v3.906h1zm0-3.906v-3.906h-1v3.906h1zm7.031 3.906v-3.906h-1v3.906h1zm0-3.906v-3.906h-1v3.906h1zm7.031 3.906v-3.906h-1v3.906h1zm0-3.906v-3.906h-1v3.906h1zm7.031 3.906v-3.906h-1v3.906h1zm0-3.906v-3.906h-1v3.906h1zm-42.687 19.25h42.969v-1H71.875v1zm0 4.687h29.687v-1H71.875v1zm0 4.688h37.5v-1h-37.5v1zm0 4.687h42.969v-1H71.875v1zm0 4.688h29.687v-1H71.875v1zm0 4.687h37.5v-1h-37.5v1zM4.576 76.664a4.295 4.295 0 00-4.295 4.295h1a3.295 3.295 0 013.295-3.295v-1zM.281 80.959v62.62h1v-62.62h-1zm0 62.62a4.295 4.295 0 004.295 4.295v-1a3.295 3.295 0 01-3.295-3.295h-1zm4.295 4.295h46.965v-1H4.576v1zm46.965 0c.51 0 .923.413.923.923h1a1.923 1.923 0 00-1.923-1.923v1zm.923.923c0 1.062.861 1.923 1.924 1.923v-1a.923.923 0 01-.924-.923h-1zm1.924 1.923h8.538v-1h-8.538v1zm8.538 0a1.923 1.923 0 001.924-1.923h-1c0 .51-.414.923-.924.923v1zm1.924-1.923c0-.51.413-.923.923-.923v-1a1.923 1.923 0 00-1.923 1.923h1zm.923-.923h46.965v-1H65.773v1zm46.965 0a4.295 4.295 0 004.295-4.295h-1a3.295 3.295 0 01-3.295 3.295v1zM20.662 53.442l29.681-29.338-.703-.712L19.96 52.73l.703.712zM49.636 24.1l.838.848.711-.703-.838-.848-.711.703zm.823 3.513l-8.48 8.382.702.712 8.48-8.383-.702-.71zm-.112-4.216L48.671 21.7l-.711.703 1.676 1.696.711-.703zm-5.756-1.72L16.606 49.338l.703.711 27.985-27.661-.703-.711zM16.567 49.382l-6.414 8.027.781.624 6.414-8.027-.781-.624zm3.436 3.31l-8.102 6.32.615.788 8.102-6.32-.615-.788zm-3.401-2.647l3.353 3.392.711-.703-3.353-3.392-.711.703zm-6.449 7.364c-1.252 1.568.781 3.625 2.363 2.391l-.615-.788c-.647.505-1.479-.337-.966-.979l-.782-.624zm38.518-35.708a2.885 2.885 0 00-4.08-.024l.703.711a1.885 1.885 0 012.666.015l.71-.702zm1.803 3.247c.732.74.725 1.933-.015 2.665l.703.711a2.885 2.885 0 00.023-4.08l-.71.704zM62 23.658v53.506h1V23.658h-1zm55.033 119.921V86.158h-1v57.421h1zm-.5-56.921h3.779v-1h-3.779v1zm-3.795-8.994a3.296 3.296 0 013.295 3.295h1a4.295 4.295 0 00-4.295-4.295v1zm3.295 3.295v62.62h1v-62.62h-1zM4.576 77.664h7.633v-1H4.576v1zm108.162-1h-5.707v1h5.707v-1z" fill="#000577"/><path d="M9.019 62.108c-1.302 1.823-2.656 5.313 2.344 4.688 6.25-.782 31.25-21.876 41.406-14.063 10.156 7.812-.781 16.406-.781 16.406" stroke="#A8ABFF" stroke-linecap="round" stroke-linejoin="round"/><path d="M5.524 75.655c0-1.361.884-2.57 2.186-2.966 19.047-5.799 30.533-5.755 50.172.68v70.21c-19.073-7.132-30.449-7.994-48.034-1.652-2.082.751-4.324-.758-4.324-2.971v-63.3zm53.909-2.285c19.344-6.778 30.813-6.796 50.195-.695a3.097 3.097 0 012.159 2.959v63.713c0 2.103-2.038 3.602-4.064 3.036-17.944-5.013-29.3-4.369-48.29 1.196v-70.21zm74.426-5.181c-8.482 0-15.357-6.86-15.357-15.322 0-5.997 3.453-11.19 8.484-13.705.965-.483 1.516-1.427 1.516-2.506v-3.022h10.715v3.022c0 1.079.551 2.023 1.516 2.506 5.031 2.516 8.484 7.708 8.484 13.705 0 8.462-6.876 15.322-15.358 15.322z" fill="#A8ABFF"/><path d="M128.487 33.3h-.5a.5.5 0 00.5.5v-.5zm0-5.631h.5-.5zm1.489-1.49v-.5.5zm.291 0v.5-.5zm1.167-.959l-.491-.096.491.096zm.059-.3l.491.096-.491-.096zm7.709 8.38v.5a.5.5 0 00.5-.5h-.5zm0-5.631h.5-.5zm-1.489-1.49v.5-.5zm-.473 0v-.5.5zm-1.167-.959l-.491.097.491-.097zm-.059-.3l.49-.097-.49.097zm-9.115 26.922l-.483-.13.483.13zm13.732-.008l.483-.13-.483.13zm-13.498 1.28l.405-.292-.405.292zm.633.88l-.406.292.406-.292zm1.395-.086l.439.24-.439-.24zm.086-.158l-.438-.24.438.24zm7.701.037l-.447-.224.447.224zm.015-.03l.447.223-.447-.223zm1.299-.02l.44-.238-.44.237zm.089.164l-.44.237.44-.237zm1.399.095l-.404-.295.404.295zm.641-.878l.403.295-.403-.295zm-5.997.675l-.446-.226.446.226zm1.277-.002l.446-.226-.446.226zm-5.123-.008l.445-.226-.445.226zM134.141 1a.5.5 0 00-1 0h1zM68.623 91.873a.5.5 0 10.254.967l-.254-.967zm33.194.968a.5.5 0 10.243-.97l-.243.97zm-54.693-.001a.5.5 0 00.254-.967l-.254.967zm-33.183-.969a.5.5 0 00.243.97l-.243-.97zM129.976 26.68h.291v-1h-.291v1zm1.948-1.363l.06-.3-.981-.194-.06.3.981.194zm5.789.363h-.473v1h.473v-1zm-1.15-.556l-.059-.3-.981.192.059.301.981-.193zm2.639 7.676h-3.529v1h3.529v-1zm-3.529 0h-3.814v1h3.814v-1zm-3.814 0h-3.372v1h3.372v-1zm-.483.37l-4.96 18.543.966.258 4.96-18.542-.966-.258zm3.814.26l4.958 18.533.966-.259-4.958-18.533-.966.258zm-8.463 19.976l.633.88.812-.585-.634-.879-.811.584zm2.873.742l.086-.158-.877-.48-.086.157.877.48zm7.795-.137l.015-.03-.894-.448-.015.03.894.448zm.427-.037l.089.164.88-.475-.089-.164-.88.475zm2.332.317l.64-.878-.807-.59-.641.878.808.59zm-5.314-.272a.216.216 0 01.385-.002l.892-.453c-.452-.89-1.72-.882-2.169.003l.892.452zm-2.56.002a.217.217 0 01.387 0l.892-.452a1.217 1.217 0 00-2.171 0l.892.452zm-2.178-.012c.442.873 1.719.917 2.178.012l-.892-.452c-.073.143-.306.162-.395-.012l-.891.452zm-.416-.019c.081-.148.324-.162.416.019l.891-.452c-.44-.869-1.7-.93-2.184-.047l.877.48zm10.462-2.027c.079.296.02.613-.161.86l.807.59c.36-.492.477-1.12.32-1.709l-.966.259zm-13.732-.25a2.007 2.007 0 00.311 1.693l.811-.584a1.011 1.011 0 01-.156-.851l-.966-.258zm10.088-26.89c-.128-.65-.502-1.297-.992-1.782-.488-.483-1.147-.86-1.871-.86v1c.376 0 .797.204 1.168.57.367.364.63.837.714 1.265l.981-.193zm.736.857a.69.69 0 01-.677-.556l-.981.193a1.69 1.69 0 001.658 1.363v-1zm-9.88 28.606c.57.791 1.771.717 2.24-.138l-.877-.48a.326.326 0 01-.551.033l-.812.585zm12.342-26.617a1.99 1.99 0 00-1.989-1.99v1a.99.99 0 01.989.99h1zm-1.791 26.47a1.33 1.33 0 002.243.152l-.808-.59a.329.329 0 01-.555-.038l-.88.475zm-5.927-29.123c.09-.46.315-.936.626-1.29.31-.354.667-.544 1.031-.544v-1c-.737 0-1.347.388-1.783.884a3.85 3.85 0 00-.855 1.757l.981.194zm5.426 28.964a.232.232 0 01.412-.006l.88-.475a1.232 1.232 0 00-2.186.034l.894.447zm-7.143-27.3c.807 0 1.501-.571 1.657-1.363l-.981-.193a.689.689 0 01-.676.556v1zm4.958 27.337c.451.89 1.724.886 2.17-.006l-.894-.448a.215.215 0 01-.384.002l-.892.452zm-6.238-26.348a.99.99 0 01.989-.99v-1a1.99 1.99 0 00-1.989 1.99h1zm3.68 26.352c.453.892 1.724.884 2.173-.002l-.892-.452a.218.218 0 01-.389.002l-.892.452zm-3.68-20.721v-5.631h-1V33.3h1zm10.715 0v-5.631h-1V33.3h1zM68.877 92.84c11.711-3.069 20.964-3 32.94.001l.243-.97c-12.13-3.04-21.554-3.112-33.437.002l.254.967zm-21.5-.967c-11.882-3.114-21.306-3.042-33.436-.002l.243.97c11.976-3.001 21.229-3.07 32.94-.001l.254-.967zm86.764-69.191V1h-1v21.682h1z" fill="#000577"/><path d="M68.75 100.169c11.797-3.091 21.135-3.021 33.188 0m-54.687 0c-11.797-3.091-21.135-3.021-33.188 0m54.687 4.687c11.797-3.091 21.135-3.021 33.188 0m-54.687 0c-11.797-3.091-21.135-3.021-33.188 0m54.687 4.688c11.797-3.091 21.135-3.021 33.188 0m-54.687 0c-11.797-3.091-21.135-3.021-33.188 0m54.687 4.687c11.797-3.091 21.135-3.021 33.188 0m-54.687 0c-11.797-3.091-21.135-3.021-33.188 0" stroke="#fff" stroke-linecap="round" stroke-linejoin="round"/><circle cx="150.5" cy="131.5" r="21" fill="#fff" stroke="#202588"/><path d="M151.591 120c1.046 0 1.893.616 1.893 1.375v7.141h7.141c.759 0 1.375.848 1.375 1.893v1.182c0 1.046-.616 1.893-1.375 1.893h-7.141v7.141c0 .759-.847 1.375-1.893 1.375h-1.182c-1.046 0-1.893-.616-1.893-1.375v-7.141h-7.141c-.759 0-1.375-.847-1.375-1.893v-1.182c0-1.045.616-1.893 1.375-1.893h7.141v-7.141c0-.759.847-1.375 1.893-1.375h1.182z" fill="#6277D7"/><path d="M148.516 128.516h-7.141c-.759 0-1.375.848-1.375 1.893v1.182c0 1.046.616 1.893 1.375 1.893h7.141m0-4.968v-7.141c0-.759.847-1.375 1.893-1.375h1.182c1.046 0 1.893.616 1.893 1.375v7.141m-4.968 0v4.968m4.968-4.968h7.141c.759 0 1.375.848 1.375 1.893v1.182c0 1.046-.616 1.893-1.375 1.893h-7.141m0-4.968v4.968m0 0v7.141c0 .759-.847 1.375-1.893 1.375h-1.182c-1.046 0-1.893-.616-1.893-1.375v-7.141" stroke="#6277D7" stroke-linecap="round" stroke-linejoin="round"/></svg>