<svg width="10" height="11" viewBox="0 0 10 11" fill="none" xmlns="http://www.w3.org/2000/svg">
<path d="M5.08929 10.4175C5.08929 10.4677 5.05022 10.5068 5 10.5068C4.45871 10.5068 4.01786 10.066 4.01786 9.52466C4.01786 9.47443 4.05692 9.43537 4.10714 9.43537C4.15737 9.43537 4.19643 9.47443 4.19643 9.52466C4.19643 9.96551 4.55915 10.3282 5 10.3282C5.05022 10.3282 5.08929 10.3673 5.08929 10.4175ZM9.64286 8.81037C8.81696 8.11283 7.85714 6.86283 7.85714 4.16751C7.85714 3.09609 6.96987 1.92421 5.49107 1.70658C5.51897 1.63961 5.53571 1.56707 5.53571 1.48894C5.53571 1.19318 5.29576 0.953229 5 0.953229C4.70424 0.953229 4.46429 1.19318 4.46429 1.48894C4.46429 1.56707 4.48103 1.63961 4.50893 1.70658C3.03013 1.92421 2.14286 3.09609 2.14286 4.16751C2.14286 6.86283 1.18304 8.11283 0.357143 8.81037C0.357143 9.201 0.680804 9.52466 1.07143 9.52466H3.57143C3.57143 10.3115 4.21317 10.9532 5 10.9532C5.78683 10.9532 6.42857 10.3115 6.42857 9.52466H8.92857C9.3192 9.52466 9.64286 9.201 9.64286 8.81037Z" fill="#FEFEFE"/>
</svg>
