<svg width="166" height="144" viewBox="0 0 166 144" fill="none" xmlns="http://www.w3.org/2000/svg">
<path d="M120.326 15.469C114.116 13.7281 113.367 11.6483 111.763 8.04772C111.049 12.0043 110.621 15.469 107.196 15.469C107.196 15.469 107.196 4.6225 118.043 4.6225C128.889 4.6225 128.889 16.0399 128.889 16.0399C125.026 15.5433 122.748 14.041 120.326 11.4729V15.469Z" fill="#A8ABFF"/>
<path d="M113.144 81.7634L113.661 97.7846L108.689 94.4699L107.62 93.365C109.887 91.6084 110.509 90.0894 110.382 88.3929C113.697 90.0502 113.904 82.3269 111.487 82.8683V79.0011L106.515 73.4766L97.1232 74.5815L94.3609 79.0011L93.8084 82.8683L92.7035 83.4208C92.1099 86.832 92.3401 88.1803 94.9133 88.3929C95.1445 90.2556 96.1293 91.2336 97.6756 92.8125C97.0478 94.8454 95.3843 95.8492 92.1511 97.2322V81.7634C92.1511 81.7634 91.5984 71.2668 102.647 71.2668C113.697 71.2668 113.144 81.7634 113.144 81.7634Z" fill="#A8ABFF"/>
<path d="M113.144 81.7634C109.405 81.2829 108.172 77.8964 108.172 77.8964C103.992 79.7848 101.846 79.5054 98.228 77.344C98.228 77.344 94.4755 81.2467 93.2557 81.7636C93.2557 81.7636 91.5984 71.2668 102.647 71.2668C113.697 71.2668 113.144 81.7634 113.144 81.7634Z" fill="#A8ABFF"/>
<path d="M113.144 81.7634L113.661 97.7846L108.689 94.4699L107.62 93.365C109.887 91.6084 110.509 90.0894 110.382 88.3929C113.697 90.0502 113.904 82.3269 111.487 82.8683V79.0011L106.515 73.4766L97.1232 74.5815L94.3609 79.0011L93.8084 82.8683L92.7035 83.4208C92.1099 86.832 92.3401 88.1803 94.9133 88.3929C95.1445 90.2556 96.1293 91.2336 97.6756 92.8125C97.0478 94.8454 95.3843 95.8492 92.1511 97.2322V81.7634C92.1511 81.7634 91.5984 71.2668 102.647 71.2668M113.144 81.7634C113.144 81.7634 113.697 71.2668 102.647 71.2668M113.144 81.7634C109.405 81.2829 108.172 77.8964 108.172 77.8964C103.992 79.7848 101.846 79.5054 98.228 77.344C98.228 77.344 94.4755 81.2467 93.2557 81.7636C93.2557 81.7636 91.5984 71.2668 102.647 71.2668M120.326 15.469C114.116 13.7281 113.367 11.6483 111.763 8.04772C111.049 12.0043 110.621 15.469 107.196 15.469C107.196 15.469 107.196 4.6225 118.043 4.6225C128.889 4.6225 128.889 16.0399 128.889 16.0399C125.026 15.5433 122.748 14.041 120.326 11.4729V15.469Z" stroke="#A8ABFF" stroke-linecap="round" stroke-linejoin="round"/>
<path d="M128.43 16.7209V15.5792C128.43 9.90411 125.004 5.30354 118.154 5.30354C111.304 5.30354 107.878 9.90411 107.878 15.5792V17.8627" stroke="#000577"/>
<path d="M129.168 19.9249C129.168 25.5999 126.101 30.2005 122.318 30.2005" stroke="#000577"/>
<path d="M125.788 23.1015V22.6015C125.569 22.6015 125.375 22.7445 125.31 22.9541L125.788 23.1015ZM126.536 17.6427L126.042 17.5707C126.021 17.7144 126.063 17.86 126.158 17.9698C126.253 18.0796 126.391 18.1427 126.536 18.1427V17.6427ZM110.448 23.1015L110.926 22.9541C110.861 22.7445 110.668 22.6015 110.448 22.6015V23.1015ZM109.7 17.6427V18.1427C109.845 18.1427 109.983 18.0796 110.078 17.9698C110.173 17.86 110.216 17.7144 110.195 17.5707L109.7 17.6427ZM134.603 35.7912L134.878 35.3736C134.867 35.3659 134.855 35.3586 134.842 35.3519L134.603 35.7912ZM135.315 38.5798C135.315 38.8559 135.539 39.0798 135.815 39.0798C136.091 39.0798 136.315 38.8559 136.315 38.5798H135.315ZM123.368 27.2761C123.291 27.011 123.013 26.8588 122.748 26.9361C122.483 27.0134 122.331 27.291 122.408 27.5561L123.368 27.2761ZM101.633 35.7912L101.394 35.3519C101.382 35.3586 101.37 35.3659 101.358 35.3736L101.633 35.7912ZM99.9212 38.5798C99.9212 38.8559 100.145 39.0798 100.421 39.0798C100.697 39.0798 100.921 38.8559 100.921 38.5798H99.9212ZM127.185 15.7625C127.195 15.4865 126.979 15.2549 126.703 15.2453C126.427 15.2356 126.195 15.4515 126.186 15.7275L127.185 15.7625ZM110.051 15.7275C110.041 15.4515 109.809 15.2356 109.533 15.2453C109.257 15.2549 109.042 15.4865 109.051 15.7625L110.051 15.7275ZM133.754 57.8803C134.014 57.7881 134.15 57.5024 134.058 57.2421C133.966 56.9818 133.68 56.8455 133.42 56.9376L133.754 57.8803ZM126.87 59.7873L126.703 59.316L126.87 59.7873ZM124.966 57.9794L125.445 58.1217L125.445 58.1217L124.966 57.9794ZM124.996 57.8771L124.517 57.7348V57.7348L124.996 57.8771ZM123.092 56.0692L122.925 55.5978L123.092 56.0692ZM116.208 57.9762C115.948 58.0683 115.811 58.3541 115.903 58.6144C115.996 58.8747 116.281 59.011 116.542 58.9188L116.208 57.9762ZM98.434 121.427C98.1819 121.314 97.8861 121.427 97.7734 121.679C97.6606 121.932 97.7736 122.227 98.0256 122.34L98.434 121.427ZM102.254 123.684L102.05 124.14L102.254 123.684ZM103.395 122.315L103.882 122.201V122.201L103.395 122.315ZM103.377 122.238L102.89 122.352V122.352L103.377 122.238ZM104.518 120.869L104.314 121.326L104.518 120.869ZM108.338 123.126C108.59 123.239 108.886 123.126 108.999 122.874C109.111 122.622 108.999 122.326 108.746 122.213L108.338 123.126ZM56.4019 24.7633C56.5552 24.5337 56.4933 24.2232 56.2637 24.0699C56.034 23.9165 55.7235 23.9784 55.5702 24.2081L56.4019 24.7633ZM53.538 28.1526L53.1222 27.8749V27.8749L53.538 28.1526ZM51.8437 27.6015L52.3166 27.4391L52.3166 27.4391L51.8437 27.6015ZM51.8179 27.5263L51.345 27.6886V27.6886L51.8179 27.5263ZM50.1235 26.9752L50.5394 27.2528L50.1235 26.9752ZM47.2597 30.3644C47.1063 30.5941 47.1682 30.9046 47.3979 31.0579C47.6276 31.2112 47.938 31.1494 48.0914 30.9197L47.2597 30.3644ZM61.8404 83.6316C61.5653 83.6073 61.3226 83.8106 61.2984 84.0857C61.2741 84.3608 61.4774 84.6035 61.7524 84.6278L61.8404 83.6316ZM66.1882 84.5175L66.1443 85.0155L66.1882 84.5175ZM66.518 86.2684L66.8874 86.6053L66.518 86.2684ZM66.4644 86.3272L66.0949 85.9902L66.4644 86.3272ZM66.7941 88.0781L66.8381 87.58L66.7941 88.0781ZM71.142 88.9639C71.417 88.9882 71.6597 88.7849 71.684 88.5098C71.7083 88.2348 71.505 87.9921 71.2299 87.9678L71.142 88.9639ZM14.5989 101.386C14.8003 101.197 14.8103 100.88 14.6213 100.679C14.4324 100.477 14.1159 100.467 13.9146 100.656L14.5989 101.386ZM38.3085 110.465C38.2942 110.189 38.059 109.977 37.7832 109.992C37.5075 110.006 37.2955 110.241 37.3098 110.517L38.3085 110.465ZM70.0885 96.4955V95.9955V96.4955ZM41.5111 96.4955V96.9955V96.4955ZM71.712 98.119H71.212H71.712ZM71.712 107.545H72.212H71.712ZM68.7656 110.491V109.991V110.491ZM38.5647 110.491V110.991V110.491ZM1.73438 73.6607V73.1607C1.45823 73.1607 1.23438 73.3845 1.23438 73.6607H1.73438ZM15.8964 73.6607L16.3932 73.6041C16.3645 73.3515 16.1507 73.1607 15.8964 73.1607V73.6607ZM110.072 88.33V87.83C109.853 87.83 109.659 87.973 109.594 88.1826L110.072 88.33ZM110.796 83.0473L110.301 82.9754C110.28 83.119 110.323 83.2647 110.418 83.3745C110.513 83.4842 110.651 83.5473 110.796 83.5473V83.0473ZM95.2267 88.33L95.7045 88.1826C95.6399 87.973 95.4461 87.83 95.2267 87.83V88.33ZM94.5026 83.0473V83.5473C94.6477 83.5473 94.7857 83.4842 94.8807 83.3745C94.9757 83.2647 95.0183 83.119 94.9974 82.9754L94.5026 83.0473ZM118.603 100.61L118.878 100.193C118.866 100.185 118.854 100.178 118.842 100.171L118.603 100.61ZM119.275 102.873C119.275 103.149 119.499 103.373 119.775 103.373C120.052 103.373 120.275 103.149 120.275 102.873H119.275ZM107.746 92.3654C107.668 92.1003 107.391 91.9481 107.126 92.0255C106.861 92.1028 106.708 92.3804 106.786 92.6455L107.746 92.3654ZM86.696 100.61L86.4572 100.171C86.4448 100.178 86.4327 100.185 86.4209 100.193L86.696 100.61ZM85.0232 102.873C85.0232 103.149 85.2471 103.373 85.5232 103.373C85.7994 103.373 86.0232 103.149 86.0232 102.873H85.0232ZM111.44 81.2283C111.45 80.9524 111.234 80.7208 110.958 80.7111C110.682 80.7015 110.45 80.9174 110.441 81.1933L111.44 81.2283ZM94.8582 81.1933C94.8485 80.9174 94.617 80.7015 94.341 80.7111C94.065 80.7208 93.8491 80.9524 93.8588 81.2283L94.8582 81.1933ZM94.7834 24.308C94.7834 37.1955 105.231 47.6428 118.118 47.6428V46.6428C105.783 46.6428 95.7834 36.6432 95.7834 24.308H94.7834ZM118.118 47.6428C131.006 47.6428 141.453 37.1955 141.453 24.308H140.453C140.453 36.6432 130.453 46.6428 118.118 46.6428V47.6428ZM141.453 24.308C141.453 11.4206 131.006 0.973221 118.118 0.973221V1.97322C130.453 1.97322 140.453 11.9729 140.453 24.308H141.453ZM118.118 0.973221C105.231 0.973221 94.7834 11.4206 94.7834 24.308H95.7834C95.7834 11.9729 105.783 1.97322 118.118 1.97322V0.973221ZM125.31 22.9541C125.019 23.8973 124.3 25.3401 123.105 26.5393C121.918 27.7301 120.278 28.6668 118.118 28.6668V29.6668C120.598 29.6668 122.481 28.5817 123.813 27.2453C125.137 25.9172 125.933 24.3273 126.266 23.2488L125.31 22.9541ZM125.788 23.6015C126.676 23.6015 127.353 23.1609 127.807 22.5451C128.252 21.9418 128.49 21.1647 128.555 20.4148C128.619 19.6666 128.514 18.8872 128.209 18.2731C127.898 17.6482 127.344 17.1427 126.536 17.1427V18.1427C126.852 18.1427 127.115 18.3195 127.313 18.7181C127.517 19.1275 127.611 19.7129 127.558 20.3294C127.506 20.9441 127.312 21.5318 127.002 21.9519C126.702 22.3597 126.303 22.6015 125.788 22.6015V23.6015ZM109.97 23.2488C110.349 24.4775 111.334 26.3821 113.027 27.7994L113.669 27.0328C112.152 25.7622 111.26 24.036 110.926 22.9541L109.97 23.2488ZM113.027 27.7994C114.306 28.8707 115.995 29.6668 118.118 29.6668V28.6668C116.265 28.6668 114.797 27.9775 113.669 27.0328L113.027 27.7994ZM110.448 22.6015C109.933 22.6015 109.535 22.3597 109.234 21.9519C108.925 21.5318 108.731 20.9441 108.678 20.3294C108.625 19.7129 108.719 19.1275 108.923 18.7181C109.121 18.3195 109.385 18.1427 109.7 18.1427V17.1427C108.893 17.1427 108.338 17.6482 108.027 18.2731C107.722 18.8872 107.618 19.6666 107.682 20.4148C107.746 21.1647 107.985 21.9418 108.429 22.5451C108.883 23.1609 109.56 23.6015 110.448 23.6015V22.6015ZM124.448 30.8409L134.365 36.2305L134.842 35.3519L124.926 29.9623L124.448 30.8409ZM134.328 36.2087C134.584 36.3769 134.837 36.7285 135.028 37.2005C135.215 37.6628 135.315 38.1726 135.315 38.5798H136.315C136.315 38.031 136.185 37.3941 135.955 36.8251C135.728 36.2657 135.375 35.7009 134.878 35.3736L134.328 36.2087ZM122.888 27.4161C122.408 27.5561 122.408 27.5562 122.409 27.5563C122.409 27.5564 122.409 27.5565 122.409 27.5566C122.409 27.5568 122.409 27.557 122.409 27.5573C122.409 27.5578 122.409 27.5584 122.409 27.5592C122.41 27.5608 122.41 27.5629 122.411 27.5655C122.413 27.5707 122.415 27.5781 122.418 27.5874C122.424 27.606 122.432 27.6325 122.443 27.6661C122.464 27.7331 122.496 27.8284 122.537 27.9445C122.62 28.1761 122.743 28.4938 122.905 28.8377C123.216 29.4998 123.714 30.3591 124.412 30.8191L124.962 29.984C124.512 29.6876 124.111 29.0542 123.81 28.4126C123.665 28.1047 123.554 27.8179 123.479 27.6079C123.441 27.5033 123.413 27.4185 123.395 27.3606C123.385 27.3317 123.379 27.3097 123.374 27.2952C123.372 27.288 123.37 27.2828 123.369 27.2795C123.369 27.2779 123.369 27.2768 123.368 27.2762C123.368 27.2759 123.368 27.2758 123.368 27.2757C123.368 27.2757 123.368 27.2758 123.368 27.2758C123.368 27.2758 123.368 27.2759 123.368 27.2759C123.368 27.276 123.368 27.2761 122.888 27.4161ZM111.31 29.9623L101.394 35.3519L101.872 36.2305L111.788 30.8409L111.31 29.9623ZM101.358 35.3736C100.861 35.7009 100.508 36.2657 100.282 36.8251C100.051 37.3941 99.9212 38.031 99.9212 38.5798H100.921C100.921 38.1726 101.021 37.6628 101.208 37.2005C101.4 36.7285 101.653 36.3769 101.908 36.2087L101.358 35.3736ZM113.348 27.4161C112.868 27.2761 112.868 27.276 112.868 27.2759C112.868 27.2759 112.868 27.2758 112.868 27.2758C112.868 27.2757 112.868 27.2757 112.868 27.2757C112.868 27.2758 112.868 27.2759 112.868 27.2762C112.868 27.2768 112.867 27.2779 112.867 27.2795C112.866 27.2828 112.864 27.288 112.862 27.2952C112.858 27.3097 112.851 27.3317 112.842 27.3606C112.823 27.4184 112.795 27.5033 112.758 27.6079C112.682 27.8179 112.571 28.1047 112.427 28.4126C112.125 29.0542 111.724 29.6876 111.274 29.984L111.824 30.8191C112.523 30.3591 113.021 29.4998 113.332 28.8377C113.493 28.4938 113.616 28.1761 113.699 27.9445C113.741 27.8284 113.772 27.7331 113.794 27.6661C113.805 27.6325 113.813 27.606 113.819 27.5874C113.821 27.5781 113.824 27.5707 113.825 27.5655C113.826 27.5629 113.827 27.5608 113.827 27.5592C113.827 27.5584 113.827 27.5578 113.828 27.5573C113.828 27.557 113.828 27.5568 113.828 27.5566C113.828 27.5565 113.828 27.5564 113.828 27.5563C113.828 27.5562 113.828 27.5561 113.348 27.4161ZM126.536 17.6427C127.031 17.7146 127.031 17.7146 127.031 17.7145C127.031 17.7145 127.031 17.7145 127.031 17.7144C127.031 17.7144 127.031 17.7143 127.031 17.7142C127.031 17.714 127.031 17.7137 127.031 17.7134C127.032 17.7129 127.032 17.7121 127.032 17.7112C127.032 17.7093 127.032 17.7067 127.033 17.7033C127.034 17.6967 127.035 17.6872 127.037 17.675C127.04 17.6505 127.045 17.6149 127.05 17.569C127.062 17.4771 127.077 17.3435 127.093 17.1738C127.127 16.8345 127.165 16.3496 127.185 15.7625L126.186 15.7275C126.166 16.2911 126.13 16.7551 126.098 17.0769C126.083 17.2377 126.068 17.3629 126.058 17.447C126.053 17.4891 126.049 17.5209 126.046 17.5417C126.044 17.5521 126.043 17.5598 126.043 17.5647C126.042 17.5671 126.042 17.5688 126.042 17.5699C126.042 17.5704 126.042 17.5707 126.042 17.5708C126.042 17.5709 126.042 17.5709 126.042 17.5709C126.042 17.5709 126.042 17.5709 126.042 17.5709C126.042 17.5708 126.042 17.5708 126.042 17.5708C126.042 17.5708 126.042 17.5707 126.536 17.6427ZM109.7 17.6427C110.195 17.5707 110.195 17.5708 110.195 17.5708C110.195 17.5708 110.195 17.5709 110.195 17.5709C110.195 17.5709 110.195 17.5709 110.195 17.5709C110.195 17.5709 110.195 17.5709 110.195 17.5708C110.195 17.5707 110.195 17.5704 110.195 17.5699C110.194 17.5688 110.194 17.5671 110.194 17.5647C110.193 17.5598 110.192 17.5521 110.191 17.5417C110.188 17.5209 110.184 17.4891 110.179 17.447C110.168 17.3629 110.154 17.2377 110.138 17.0769C110.107 16.7551 110.07 16.2911 110.051 15.7275L109.051 15.7625C109.072 16.3496 109.11 16.8344 109.143 17.1738C109.159 17.3435 109.175 17.4771 109.186 17.569C109.192 17.6149 109.196 17.6505 109.2 17.675C109.201 17.6872 109.203 17.6967 109.203 17.7033C109.204 17.7067 109.204 17.7093 109.205 17.7111C109.205 17.7121 109.205 17.7129 109.205 17.7134C109.205 17.7137 109.205 17.714 109.205 17.7142C109.205 17.7143 109.205 17.7144 109.205 17.7144C109.205 17.7145 109.205 17.7145 109.205 17.7145C109.205 17.7146 109.205 17.7146 109.7 17.6427ZM124.372 30.0131C121.95 31.9764 120.124 32.9066 118.301 32.9223C116.474 32.938 114.524 32.0368 111.852 30.0037L111.246 30.7995C113.958 32.8627 116.135 33.941 118.309 33.9223C120.488 33.9035 122.539 32.7855 125.002 30.79L124.372 30.0131ZM65.3191 20.625C65.3191 26.5966 70.16 31.4375 76.1316 31.4375V30.4375C70.7123 30.4375 66.3191 26.0443 66.3191 20.625H65.3191ZM76.1316 31.4375C82.1032 31.4375 86.9441 26.5966 86.9441 20.625H85.9441C85.9441 26.0443 81.5509 30.4375 76.1316 30.4375V31.4375ZM86.9441 20.625C86.9441 14.6534 82.1032 9.81251 76.1316 9.81251V10.8125C81.5509 10.8125 85.9441 15.2057 85.9441 20.625H86.9441ZM76.1316 9.81251C70.16 9.81251 65.3191 14.6534 65.3191 20.625H66.3191C66.3191 15.2057 70.7123 10.8125 76.1316 10.8125V9.81251ZM82.9976 54.5089C82.9976 58.8532 86.5194 62.375 90.8637 62.375V61.375C87.0717 61.375 83.9976 58.3009 83.9976 54.5089H82.9976ZM90.8637 62.375C95.208 62.375 98.7298 58.8532 98.7298 54.5089H97.7298C97.7298 58.3009 94.6557 61.375 90.8637 61.375V62.375ZM98.7298 54.5089C98.7298 50.1646 95.208 46.6428 90.8637 46.6428V47.6428C94.6557 47.6428 97.7298 50.7169 97.7298 54.5089H98.7298ZM90.8637 46.6428C86.5194 46.6428 82.9976 50.1646 82.9976 54.5089H83.9976C83.9976 50.7169 87.0717 47.6428 90.8637 47.6428V46.6428ZM127.194 117.857C127.194 122.201 130.716 125.723 135.06 125.723V124.723C131.268 124.723 128.194 121.649 128.194 117.857H127.194ZM135.06 125.723C139.404 125.723 142.926 122.201 142.926 117.857H141.926C141.926 121.649 138.852 124.723 135.06 124.723V125.723ZM142.926 117.857C142.926 113.513 139.404 109.991 135.06 109.991V110.991C138.852 110.991 141.926 114.065 141.926 117.857H142.926ZM135.06 109.991C130.716 109.991 127.194 113.513 127.194 117.857H128.194C128.194 114.065 131.268 110.991 135.06 110.991V109.991ZM72.6852 131.116C72.6852 137.088 77.5261 141.928 83.4976 141.928V140.928C78.0784 140.928 73.6852 136.535 73.6852 131.116H72.6852ZM83.4976 141.928C89.4692 141.928 94.3101 137.088 94.3101 131.116H93.3101C93.3101 136.535 88.9169 140.928 83.4976 140.928V141.928ZM94.3101 131.116C94.3101 125.144 89.4692 120.304 83.4976 120.304V121.304C88.9169 121.304 93.3101 125.697 93.3101 131.116H94.3101ZM83.4976 120.304C77.5261 120.304 72.6852 125.144 72.6852 131.116H73.6852C73.6852 125.697 78.0784 121.304 83.4976 121.304V120.304ZM133.42 56.9376L126.703 59.316L127.037 60.2586L133.754 57.8803L133.42 56.9376ZM125.445 58.1217L125.475 58.0193L124.517 57.7348L124.486 57.8372L125.445 58.1217ZM122.925 55.5978L116.208 57.9762L116.542 58.9188L123.259 56.5405L122.925 55.5978ZM125.475 58.0193C125.934 56.4733 124.445 55.0596 122.925 55.5978L123.259 56.5405C124.009 56.275 124.743 56.9723 124.517 57.7348L125.475 58.0193ZM126.703 59.316C125.953 59.5814 125.219 58.8842 125.445 58.1217L124.486 57.8372C124.027 59.3832 125.516 60.7969 127.037 60.2586L126.703 59.316ZM98.0256 122.34L102.05 124.14L102.459 123.228L98.434 121.427L98.0256 122.34ZM103.882 122.201L103.864 122.124L102.89 122.352L102.908 122.43L103.882 122.201ZM104.314 121.326L108.338 123.126L108.746 122.213L104.722 120.413L104.314 121.326ZM103.864 122.124C103.796 121.835 103.877 121.578 103.999 121.432C104.115 121.293 104.222 121.285 104.314 121.326L104.722 120.413C104.134 120.15 103.567 120.389 103.231 120.792C102.902 121.187 102.753 121.768 102.89 122.352L103.864 122.124ZM102.05 124.14C102.638 124.404 103.205 124.165 103.541 123.762C103.871 123.366 104.019 122.786 103.882 122.201L102.908 122.43C102.976 122.719 102.895 122.975 102.773 123.121C102.657 123.26 102.55 123.269 102.459 123.228L102.05 124.14ZM55.5702 24.2081L53.1222 27.8749L53.9539 28.4302L56.4019 24.7633L55.5702 24.2081ZM52.3166 27.4391L52.2908 27.3639L51.345 27.6886L51.3708 27.7639L52.3166 27.4391ZM49.7077 26.6976L47.2597 30.3644L48.0914 30.9197L50.5394 27.2528L49.7077 26.6976ZM52.2908 27.3639C52.0957 26.7958 51.6609 26.3838 51.1711 26.2246C50.6721 26.0623 50.0655 26.1616 49.7077 26.6976L50.5394 27.2528C50.5952 27.1693 50.69 27.1197 50.8619 27.1755C51.043 27.2345 51.2485 27.4078 51.345 27.6886L52.2908 27.3639ZM53.1222 27.8749C53.0664 27.9585 52.9715 28.0081 52.7997 27.9522C52.6186 27.8933 52.413 27.72 52.3166 27.4391L51.3708 27.7639C51.5659 28.332 52.0007 28.7439 52.4904 28.9032C52.9895 29.0655 53.596 28.9662 53.9539 28.4302L53.1222 27.8749ZM61.7524 84.6278L66.1443 85.0155L66.2322 84.0194L61.8404 83.6316L61.7524 84.6278ZM66.1486 85.9314L66.0949 85.9902L66.8338 86.6641L66.8874 86.6053L66.1486 85.9314ZM66.7501 88.5761L71.142 88.9639L71.2299 87.9678L66.8381 87.58L66.7501 88.5761ZM66.0949 85.9902C65.6902 86.434 65.5375 87.0132 65.6328 87.5193C65.7299 88.035 66.1081 88.5194 66.7501 88.5761L66.8381 87.58C66.738 87.5712 66.6489 87.5118 66.6155 87.3342C66.5803 87.147 66.6337 86.8835 66.8338 86.6641L66.0949 85.9902ZM66.1443 85.0155C66.2444 85.0244 66.3334 85.0838 66.3669 85.2614C66.4021 85.4486 66.3487 85.7121 66.1486 85.9314L66.8874 86.6053C67.2922 86.1615 67.4449 85.5824 67.3496 85.0763C67.2525 84.5606 66.8742 84.0761 66.2322 84.0194L66.1443 85.0155ZM1.97105 51.5625C1.97105 64.8568 12.7482 75.634 26.0425 75.634V74.634C13.3005 74.634 2.97105 64.3045 2.97105 51.5625H1.97105ZM26.0425 75.634C39.3367 75.634 50.1139 64.8568 50.1139 51.5625H49.1139C49.1139 64.3045 38.7845 74.634 26.0425 74.634V75.634ZM50.1139 51.5625C50.1139 38.2683 39.3367 27.4911 26.0425 27.4911V28.4911C38.7845 28.4911 49.1139 38.8205 49.1139 51.5625H50.1139ZM26.0425 27.4911C12.7482 27.4911 1.97105 38.2683 1.97105 51.5625H2.97105C2.97105 38.8206 13.3005 28.4911 26.0425 28.4911V27.4911ZM9.33712 111.228C9.33712 119.233 15.827 125.723 23.8326 125.723V124.723C16.3793 124.723 10.3371 118.681 10.3371 111.228H9.33712ZM23.8326 125.723C31.8383 125.723 38.3282 119.233 38.3282 111.228H37.3282C37.3282 118.681 31.286 124.723 23.8326 124.723V125.723ZM13.9146 100.656C11.0977 103.3 9.33712 107.059 9.33712 111.228H10.3371C10.3371 107.346 11.9751 103.848 14.5989 101.386L13.9146 100.656ZM38.3282 111.228C38.3282 110.972 38.3216 110.718 38.3085 110.465L37.3098 110.517C37.322 110.752 37.3282 110.989 37.3282 111.228H38.3282ZM70.0885 95.9955H41.5111V96.9955H70.0885V95.9955ZM71.212 98.119V107.545H72.212V98.119H71.212ZM68.7656 109.991H38.5647V110.991H68.7656V109.991ZM38.5647 109.991C18.5 109.991 2.23437 93.7253 2.23438 73.6607H1.23438C1.23437 94.2776 17.9477 110.991 38.5647 110.991V109.991ZM71.212 107.545C71.212 108.896 70.1167 109.991 68.7656 109.991V110.991C70.669 110.991 72.212 109.448 72.212 107.545H71.212ZM70.0885 96.9955C70.709 96.9955 71.212 97.4985 71.212 98.119H72.212C72.212 96.9462 71.2613 95.9955 70.0885 95.9955V96.9955ZM41.5111 95.9955C28.5261 95.9955 17.8269 86.2054 16.3932 73.6041L15.3996 73.7172C16.8901 86.818 28.0117 96.9955 41.5111 96.9955V95.9955ZM1.73438 74.1607H15.8964V73.1607H1.73438V74.1607ZM78.5779 88.3928C78.5779 101.687 89.3551 112.464 102.649 112.464V111.464C89.9074 111.464 79.5779 101.135 79.5779 88.3928H78.5779ZM102.649 112.464C115.944 112.464 126.721 101.687 126.721 88.3928H125.721C125.721 101.135 115.391 111.464 102.649 111.464V112.464ZM126.721 88.3928C126.721 75.0985 115.944 64.3213 102.649 64.3213V65.3213C115.391 65.3213 125.721 75.6508 125.721 88.3928H126.721ZM102.649 64.3213C89.3551 64.3213 78.5779 75.0985 78.5779 88.3928H79.5779C79.5779 75.6508 89.9074 65.3213 102.649 65.3213V64.3213ZM109.594 88.1826C109.313 89.0933 108.619 90.4871 107.464 91.6456C106.318 92.7956 104.734 93.6997 102.649 93.6997V94.6997C105.054 94.6997 106.881 93.6472 108.172 92.3515C109.455 91.0643 110.227 89.5233 110.55 88.4774L109.594 88.1826ZM110.072 88.83C110.937 88.83 111.597 88.4005 112.039 87.8012C112.471 87.2143 112.703 86.4593 112.765 85.7314C112.827 85.0052 112.726 84.2479 112.429 83.6502C112.127 83.0418 111.585 82.5473 110.796 82.5473V83.5473C111.093 83.5473 111.344 83.7132 111.534 84.0952C111.729 84.4881 111.82 85.0515 111.769 85.646C111.718 86.2387 111.531 86.8044 111.234 87.208C110.945 87.5992 110.565 87.83 110.072 87.83V88.83ZM94.749 88.4774C95.1164 89.6688 96.0713 91.5149 97.7119 92.8888L98.354 92.1221C96.8886 90.895 96.0267 89.2273 95.7045 88.1826L94.749 88.4774ZM97.7119 92.8888C98.9523 93.9275 100.59 94.6997 102.649 94.6997V93.6997C100.86 93.6997 99.4432 93.0343 98.354 92.1221L97.7119 92.8888ZM95.2267 87.83C94.7342 87.83 94.3532 87.5992 94.065 87.208C93.7676 86.8044 93.5806 86.2387 93.5298 85.646C93.4789 85.0515 93.5699 84.4881 93.7651 84.0952C93.955 83.7132 94.2054 83.5473 94.5026 83.5473V82.5473C93.7135 82.5473 93.1719 83.0418 92.8696 83.6502C92.5726 84.2479 92.4713 85.0052 92.5335 85.7314C92.5958 86.4593 92.8275 87.2143 93.2599 87.8012C93.7015 88.4005 94.3615 88.83 95.2267 88.83V87.83ZM108.768 95.8339L118.364 101.05L118.842 100.171L109.245 94.9553L108.768 95.8339ZM118.328 101.028C118.905 101.408 119.275 102.104 119.275 102.873H120.275C120.275 101.792 119.756 100.771 118.878 100.193L118.328 101.028ZM107.266 92.5055C106.786 92.6455 106.786 92.6456 106.786 92.6457C106.786 92.6458 106.786 92.6459 106.786 92.646C106.786 92.6462 106.786 92.6464 106.786 92.6466C106.786 92.6471 106.786 92.6478 106.787 92.6485C106.787 92.6501 106.788 92.6521 106.788 92.6547C106.79 92.6598 106.792 92.6669 106.795 92.6759C106.8 92.694 106.808 92.7198 106.819 92.7523C106.84 92.8173 106.87 92.9097 106.911 93.0222C106.991 93.2467 107.11 93.5547 107.267 93.8881C107.568 94.5291 108.052 95.3644 108.731 95.8122L109.281 94.9771C108.85 94.6929 108.463 94.0836 108.172 93.463C108.032 93.1656 107.925 92.8885 107.852 92.6857C107.816 92.5846 107.789 92.5027 107.771 92.4469C107.762 92.419 107.756 92.3977 107.751 92.3838C107.749 92.3769 107.748 92.3718 107.747 92.3687C107.746 92.3672 107.746 92.3661 107.746 92.3655C107.746 92.3653 107.746 92.3651 107.746 92.3651C107.746 92.3651 107.746 92.3651 107.746 92.3652C107.746 92.3652 107.746 92.3653 107.746 92.3653C107.746 92.3654 107.746 92.3654 107.266 92.5055ZM96.0535 94.9553L86.4572 100.171L86.9347 101.05L96.5311 95.8339L96.0535 94.9553ZM86.4209 100.193C85.5425 100.771 85.0232 101.792 85.0232 102.873H86.0232C86.0232 102.104 86.3934 101.408 86.971 101.028L86.4209 100.193ZM98.033 92.5055C97.553 92.3654 97.553 92.3654 97.553 92.3653C97.553 92.3653 97.553 92.3652 97.5531 92.3652C97.5531 92.3651 97.5531 92.3651 97.5531 92.3651C97.5531 92.3651 97.553 92.3653 97.5529 92.3655C97.5528 92.3661 97.5525 92.3672 97.552 92.3687C97.5511 92.3718 97.5496 92.3769 97.5474 92.3838C97.5432 92.3977 97.5366 92.419 97.5276 92.4469C97.5098 92.5027 97.4826 92.5846 97.4464 92.6857C97.3739 92.8885 97.2665 93.1656 97.1268 93.463C96.8354 94.0836 96.4487 94.6929 96.0173 94.9771L96.5673 95.8122C97.2472 95.3644 97.7309 94.5291 98.032 93.8881C98.1885 93.5547 98.3079 93.2467 98.3881 93.0222C98.4283 92.9097 98.459 92.8173 98.4799 92.7523C98.4903 92.7198 98.4983 92.694 98.5038 92.6759C98.5066 92.6669 98.5087 92.6598 98.5102 92.6547C98.511 92.6521 98.5116 92.6501 98.5121 92.6485C98.5123 92.6478 98.5125 92.6471 98.5126 92.6466C98.5127 92.6464 98.5128 92.6462 98.5128 92.646C98.5128 92.6459 98.5129 92.6458 98.5129 92.6457C98.5129 92.6456 98.513 92.6455 98.033 92.5055ZM110.796 83.0473C111.291 83.1193 111.291 83.1192 111.291 83.1192C111.291 83.1192 111.291 83.1191 111.291 83.1191C111.291 83.119 111.291 83.1189 111.291 83.1188C111.291 83.1186 111.291 83.1184 111.291 83.1181C111.291 83.1175 111.291 83.1168 111.291 83.1159C111.292 83.114 111.292 83.1115 111.292 83.1083C111.293 83.1018 111.295 83.0926 111.296 83.0807C111.299 83.057 111.304 83.0225 111.309 82.9779C111.32 82.8889 111.335 82.7595 111.351 82.5951C111.383 82.2664 111.42 81.7969 111.44 81.2283L110.441 81.1933C110.421 81.7384 110.386 82.1871 110.356 82.4982C110.341 82.6537 110.327 82.7747 110.317 82.856C110.312 82.8967 110.308 82.9273 110.305 82.9475C110.304 82.9575 110.303 82.9649 110.302 82.9696C110.302 82.972 110.302 82.9736 110.301 82.9746C110.301 82.9751 110.301 82.9754 110.301 82.9755C110.301 82.9756 110.301 82.9756 110.301 82.9756C110.301 82.9756 110.301 82.9755 110.301 82.9755C110.301 82.9755 110.301 82.9755 110.301 82.9755C110.301 82.9754 110.301 82.9754 110.796 83.0473ZM94.5026 83.0473C94.9974 82.9754 94.9974 82.9754 94.9974 82.9755C94.9974 82.9755 94.9974 82.9755 94.9974 82.9755C94.9974 82.9755 94.9974 82.9756 94.9974 82.9756C94.9974 82.9756 94.9974 82.9756 94.9974 82.9755C94.9974 82.9754 94.9973 82.9751 94.9973 82.9746C94.9971 82.9736 94.9969 82.9719 94.9966 82.9696C94.9959 82.9649 94.9949 82.9575 94.9935 82.9475C94.9908 82.9273 94.9868 82.8966 94.9818 82.856C94.9718 82.7747 94.9579 82.6537 94.9428 82.4982C94.9125 82.1871 94.8773 81.7384 94.8582 81.1933L93.8588 81.2283C93.8787 81.7969 93.9155 82.2664 93.9475 82.5951C93.9635 82.7595 93.9783 82.8889 93.9893 82.9779C93.9948 83.0225 93.9993 83.057 94.0024 83.0807C94.0041 83.0926 94.0053 83.1018 94.0062 83.1083C94.0067 83.1115 94.007 83.114 94.0073 83.1159C94.0074 83.1168 94.0075 83.1175 94.0076 83.1181C94.0077 83.1184 94.0077 83.1186 94.0077 83.1188C94.0077 83.1189 94.0077 83.119 94.0078 83.1191C94.0078 83.1191 94.0078 83.1192 94.0078 83.1192C94.0078 83.1192 94.0078 83.1193 94.5026 83.0473ZM108.692 95.0062C106.348 96.9056 104.585 97.8028 102.826 97.8179C101.063 97.8331 99.1803 96.9638 96.5951 94.9967L95.9895 95.7925C98.6143 97.7897 100.724 98.836 102.835 98.8179C104.948 98.7997 106.938 97.7147 109.321 95.7831L108.692 95.0062Z" fill="#000577"/>
<path d="M41.5101 50.8259L70.0874 50.8259C70.9841 50.8259 71.7109 50.099 71.7109 49.2023L71.7109 39.7768C71.7109 38.1495 70.3918 36.8303 68.7645 36.8303L38.5636 36.8303C18.2228 36.8303 1.7333 53.3199 1.7333 73.6607L15.7288 73.6607C15.7288 59.4221 27.2715 50.8259 41.5101 50.8259Z" fill="#A8ABFF" stroke="#A8ABFF" stroke-linecap="round" stroke-linejoin="round"/>
<path d="M119.664 17.8629C119.664 18.4935 120.175 19.0047 120.806 19.0047C121.436 19.0047 121.948 18.4935 121.948 17.8629C121.948 17.2324 121.436 16.7212 120.806 16.7212C120.175 16.7212 119.664 17.2324 119.664 17.8629Z" fill="#000577"/>
<path d="M112.813 17.8629C112.813 18.4935 113.325 19.0047 113.955 19.0047C114.586 19.0047 115.097 18.4935 115.097 17.8629C115.097 17.2324 114.586 16.7212 113.955 16.7212C113.325 16.7212 112.813 17.2324 112.813 17.8629Z" fill="#000577"/>
<path d="M104.859 83.9732C104.859 84.5835 105.353 85.0781 105.963 85.0781C106.574 85.0781 107.068 84.5835 107.068 83.9732C107.068 83.363 106.574 82.8683 105.963 82.8683C105.353 82.8683 104.859 83.363 104.859 83.9732Z" fill="#000577"/>
<path d="M98.2291 83.9732C98.2291 84.5835 98.7238 85.0781 99.334 85.0781C99.9442 85.0781 100.439 84.5835 100.439 83.9732C100.439 83.363 99.9442 82.8683 99.334 82.8683C98.7238 82.8683 98.2291 83.363 98.2291 83.9732Z" fill="#000577"/>
<path d="M34.8809 16.2054C34.8809 17.019 35.5404 17.6786 36.3541 17.6786C37.1677 17.6786 37.8273 17.019 37.8273 16.2054C37.8273 15.3917 37.1677 14.7321 36.3541 14.7321C35.5404 14.7321 34.8809 15.3917 34.8809 16.2054Z" fill="#000577"/>
<path d="M55.5058 123.75C55.5058 124.564 56.1654 125.223 56.9791 125.223C57.7927 125.223 58.4523 124.564 58.4523 123.75C58.4523 122.936 57.7927 122.277 56.9791 122.277C56.1654 122.277 55.5058 122.936 55.5058 123.75Z" fill="#000577"/>
<path d="M107.707 16.8652L107.707 16.8652C108.685 16.7439 109.576 17.438 109.697 18.4154L110.119 21.8146C110.24 22.7921 109.546 23.6828 108.568 23.8041C108.568 23.8041 108.568 23.8041 108.568 23.8041L108.505 23.812C107.528 23.9333 106.637 23.2392 106.516 22.2617L106.094 18.8626C105.973 17.8851 106.667 16.9943 107.644 16.873C107.644 16.873 107.644 16.873 107.644 16.873L107.707 16.8652ZM128.617 16.8652L128.679 16.369L128.617 16.8652L128.68 16.873C129.658 16.9943 130.352 17.8851 130.23 18.8626L129.809 22.2617C129.687 23.2392 128.797 23.9333 127.819 23.812L127.758 24.3082L127.819 23.812L127.756 23.8041C126.778 23.6828 126.084 22.7921 126.206 21.8146L126.628 18.4154C126.749 17.438 127.64 16.7439 128.617 16.8652ZM121.475 30.8424C121.121 30.8424 120.834 30.5551 120.834 30.2007C120.834 29.8463 121.121 29.559 121.475 29.559C121.83 29.559 122.117 29.8463 122.117 30.2007C122.117 30.5551 121.83 30.8424 121.475 30.8424Z" fill="#A8ABFF" stroke="#A8ABFF"/>
<circle cx="145.27" cy="123.271" r="19.7715" fill="white" stroke="#202588"/>
</svg>
