<svg width="10" height="9" viewBox="0 0 10 9" fill="none" xmlns="http://www.w3.org/2000/svg">
<path d="M10 2.91528C9.83259 3.09943 9.64286 3.26127 9.44196 3.40077C8.51004 4.03135 7.57254 4.66752 6.66295 5.326C6.1942 5.67198 5.61384 6.09609 5.00558 6.09609H5H4.99442C4.38616 6.09609 3.8058 5.67198 3.33705 5.326C2.42746 4.66193 1.48996 4.03135 0.563616 3.40077C0.357143 3.26127 0.167411 3.09943 0 2.91528V7.34609C0 7.83716 0.401786 8.23894 0.892857 8.23894H9.10714C9.59821 8.23894 10 7.83716 10 7.34609V2.91528ZM10 1.27466C10 0.783586 9.59263 0.381801 9.10714 0.381801H0.892857C0.295759 0.381801 0 0.850551 0 1.39743C0 1.90524 0.563616 2.53582 0.959821 2.80368C1.82478 3.40635 2.70089 4.00903 3.56585 4.61729C3.92857 4.86841 4.54241 5.3818 4.99442 5.3818H5H5.00558C5.45759 5.3818 6.07143 4.86841 6.43415 4.61729C7.29911 4.00903 8.17522 3.40635 9.04576 2.80368C9.53683 2.46327 10 1.89966 10 1.27466Z" fill="#FEFEFE"/>
</svg>
