<svg width="172" height="153" viewBox="0 0 172 153" fill="none" xmlns="http://www.w3.org/2000/svg">
<path d="M71.375 24.4392C71.375 24.7153 71.5989 24.9392 71.875 24.9392C72.1511 24.9392 72.375 24.7153 72.375 24.4392H71.375ZM72.375 16.6267C72.375 16.3505 72.1511 16.1267 71.875 16.1267C71.5989 16.1267 71.375 16.3505 71.375 16.6267H72.375ZM78.4062 24.4392C78.4062 24.7153 78.6301 24.9392 78.9062 24.9392C79.1824 24.9392 79.4062 24.7153 79.4062 24.4392H78.4062ZM79.4062 16.6267C79.4062 16.3505 79.1824 16.1267 78.9062 16.1267C78.6301 16.1267 78.4062 16.3505 78.4062 16.6267H79.4062ZM85.4375 24.4392C85.4375 24.7153 85.6614 24.9392 85.9375 24.9392C86.2136 24.9392 86.4375 24.7153 86.4375 24.4392H85.4375ZM86.4375 16.6267C86.4375 16.3505 86.2136 16.1267 85.9375 16.1267C85.6614 16.1267 85.4375 16.3505 85.4375 16.6267H86.4375ZM92.4687 24.4392C92.4687 24.7153 92.6926 24.9392 92.9687 24.9392C93.2449 24.9392 93.4687 24.7153 93.4687 24.4392H92.4687ZM93.4687 16.6267C93.4687 16.3505 93.2449 16.1267 92.9687 16.1267C92.6926 16.1267 92.4687 16.3505 92.4687 16.6267H93.4687ZM99.5 24.4392C99.5 24.7153 99.7238 24.9392 100 24.9392C100.276 24.9392 100.5 24.7153 100.5 24.4392H99.5ZM100.5 16.6267C100.5 16.3505 100.276 16.1267 100 16.1267C99.7238 16.1267 99.5 16.3505 99.5 16.6267H100.5ZM106.531 24.4392C106.531 24.7153 106.755 24.9392 107.031 24.9392C107.307 24.9392 107.531 24.7153 107.531 24.4392H106.531ZM107.531 16.6267C107.531 16.3505 107.307 16.1267 107.031 16.1267C106.755 16.1267 106.531 16.3505 106.531 16.6267H107.531ZM113.562 24.4392C113.562 24.7153 113.786 24.9392 114.062 24.9392C114.339 24.9392 114.562 24.7153 114.562 24.4392H113.562ZM114.562 16.6267C114.562 16.3505 114.339 16.1267 114.062 16.1267C113.786 16.1267 113.562 16.3505 113.562 16.6267H114.562ZM71.875 38.7829C71.5989 38.7829 71.375 39.0068 71.375 39.2829C71.375 39.5591 71.5989 39.7829 71.875 39.7829V38.7829ZM114.844 39.7829C115.12 39.7829 115.344 39.5591 115.344 39.2829C115.344 39.0068 115.12 38.7829 114.844 38.7829V39.7829ZM71.875 43.4704C71.5989 43.4704 71.375 43.6943 71.375 43.9704C71.375 44.2466 71.5989 44.4704 71.875 44.4704V43.4704ZM101.562 44.4704C101.839 44.4704 102.062 44.2466 102.062 43.9704C102.062 43.6943 101.839 43.4704 101.562 43.4704V44.4704ZM71.875 48.1579C71.5989 48.1579 71.375 48.3818 71.375 48.6579C71.375 48.9341 71.5989 49.1579 71.875 49.1579V48.1579ZM109.375 49.1579C109.651 49.1579 109.875 48.9341 109.875 48.6579C109.875 48.3818 109.651 48.1579 109.375 48.1579V49.1579ZM71.875 52.8454C71.5989 52.8454 71.375 53.0693 71.375 53.3454C71.375 53.6216 71.5989 53.8454 71.875 53.8454V52.8454ZM114.844 53.8454C115.12 53.8454 115.344 53.6216 115.344 53.3454C115.344 53.0693 115.12 52.8454 114.844 52.8454V53.8454ZM71.875 57.5329C71.5989 57.5329 71.375 57.7568 71.375 58.0329C71.375 58.3091 71.5989 58.5329 71.875 58.5329V57.5329ZM101.562 58.5329C101.839 58.5329 102.062 58.3091 102.062 58.0329C102.062 57.7568 101.839 57.5329 101.562 57.5329V58.5329ZM71.875 62.2204C71.5989 62.2204 71.375 62.4443 71.375 62.7204C71.375 62.9966 71.5989 63.2204 71.875 63.2204V62.2204ZM109.375 63.2204C109.651 63.2204 109.875 62.9966 109.875 62.7204C109.875 62.4443 109.651 62.2204 109.375 62.2204V63.2204ZM20.3104 53.086L20.618 53.4802C20.6334 53.4682 20.648 53.4553 20.6619 53.4416L20.3104 53.086ZM49.9916 23.7481L50.3472 23.3966V23.3966L49.9916 23.7481ZM50.8298 24.5962L50.4742 24.9476L50.8298 24.5962ZM50.8102 27.9687L50.4587 27.6131L50.8102 27.9687ZM41.9784 35.9953C41.782 36.1894 41.7802 36.506 41.9743 36.7024C42.1684 36.8988 42.485 36.9006 42.6814 36.7065L41.9784 35.9953ZM48.3152 22.052L47.9596 22.4035L48.3152 22.052ZM44.9426 22.0324L44.5912 21.6768L44.9426 22.0324ZM16.9575 49.6938L16.606 49.3382C16.5922 49.3519 16.5791 49.3665 16.5669 49.3817L16.9575 49.6938ZM10.5438 57.7214L10.9345 58.0335L10.5438 57.7214ZM12.2088 59.4058L11.9013 59.0116L12.2088 59.4058ZM62 77.1639C62 77.44 62.2239 77.6639 62.5 77.6639C62.7761 77.6639 63 77.44 63 77.1639H62ZM116.533 86.1579V85.6579C116.257 85.6579 116.033 85.8818 116.033 86.1579H116.533ZM12.2088 77.6639C12.4849 77.6639 12.7088 77.44 12.7088 77.1639C12.7088 76.8877 12.4849 76.6639 12.2088 76.6639V77.6639ZM107.031 76.6639C106.755 76.6639 106.531 76.8877 106.531 77.1639C106.531 77.44 106.755 77.6639 107.031 77.6639V76.6639ZM123.937 83.0329V23.6579H122.937V83.0329H123.937ZM120.312 20.0329H114.062V21.0329H120.312V20.0329ZM114.062 20.0329H107.031V21.0329H114.062V20.0329ZM107.031 20.0329H100V21.0329H107.031V20.0329ZM100 20.0329H92.9687V21.0329H100V20.0329ZM92.9687 20.0329H85.9375V21.0329H92.9687V20.0329ZM85.9375 20.0329H78.9062V21.0329H85.9375V20.0329ZM78.9062 20.0329H71.875V21.0329H78.9062V20.0329ZM71.875 20.0329H65.625V21.0329H71.875V20.0329ZM123.937 23.6579C123.937 21.6559 122.315 20.0329 120.312 20.0329V21.0329C121.762 21.0329 122.937 22.2082 122.937 23.6579H123.937ZM120.312 86.6579C122.315 86.6579 123.937 85.0349 123.937 83.0329H122.937C122.937 84.4827 121.762 85.6579 120.312 85.6579V86.6579ZM63 23.6579C63 22.2082 64.1752 21.0329 65.625 21.0329V20.0329C63.623 20.0329 62 21.6559 62 23.6579H63ZM72.375 24.4392V20.5329H71.375V24.4392H72.375ZM72.375 20.5329V16.6267H71.375V20.5329H72.375ZM79.4062 24.4392V20.5329H78.4062V24.4392H79.4062ZM79.4062 20.5329V16.6267H78.4062V20.5329H79.4062ZM86.4375 24.4392V20.5329H85.4375V24.4392H86.4375ZM86.4375 20.5329V16.6267H85.4375V20.5329H86.4375ZM93.4687 24.4392V20.5329H92.4687V24.4392H93.4687ZM93.4687 20.5329V16.6267H92.4687V20.5329H93.4687ZM100.5 24.4392V20.5329H99.5V24.4392H100.5ZM100.5 20.5329V16.6267H99.5V20.5329H100.5ZM107.531 24.4392V20.5329H106.531V24.4392H107.531ZM107.531 20.5329V16.6267H106.531V20.5329H107.531ZM114.562 24.4392V20.5329H113.562V24.4392H114.562ZM114.562 20.5329V16.6267H113.562V20.5329H114.562ZM71.875 39.7829H114.844V38.7829H71.875V39.7829ZM71.875 44.4704H101.562V43.4704H71.875V44.4704ZM71.875 49.1579H109.375V48.1579H71.875V49.1579ZM71.875 53.8454H114.844V52.8454H71.875V53.8454ZM71.875 58.5329H101.562V57.5329H71.875V58.5329ZM71.875 63.2204H109.375V62.2204H71.875V63.2204ZM4.57638 76.6639C2.20424 76.6639 0.28125 78.5869 0.28125 80.959H1.28125C1.28125 79.1392 2.75653 77.6639 4.57638 77.6639V76.6639ZM0.28125 80.959V143.579H1.28125V80.959H0.28125ZM0.28125 143.579C0.28125 145.951 2.20424 147.874 4.57638 147.874V146.874C2.75653 146.874 1.28125 145.399 1.28125 143.579H0.28125ZM4.57638 147.874H51.5411V146.874H4.57638V147.874ZM51.5411 147.874C52.051 147.874 52.4643 148.287 52.4643 148.797H53.4643C53.4643 147.735 52.6033 146.874 51.5411 146.874V147.874ZM52.4643 148.797C52.4643 149.859 53.3253 150.72 54.3875 150.72V149.72C53.8776 149.72 53.4643 149.307 53.4643 148.797H52.4643ZM54.3875 150.72H62.9265V149.72H54.3875V150.72ZM62.9265 150.72C63.9886 150.72 64.8497 149.859 64.8497 148.797H63.8497C63.8497 149.307 63.4364 149.72 62.9265 149.72V150.72ZM64.8497 148.797C64.8497 148.287 65.263 147.874 65.7729 147.874V146.874C64.7107 146.874 63.8497 147.735 63.8497 148.797H64.8497ZM65.7729 147.874H112.738V146.874H65.7729V147.874ZM112.738 147.874C115.11 147.874 117.033 145.951 117.033 143.579H116.033C116.033 145.399 114.557 146.874 112.738 146.874V147.874ZM20.6619 53.4416L50.3431 24.1037L49.6401 23.3925L19.9589 52.7303L20.6619 53.4416ZM49.636 24.0996L50.4742 24.9476L51.1854 24.2447L50.3472 23.3966L49.636 24.0996ZM50.4587 27.6131L41.9784 35.9953L42.6814 36.7065L51.1617 28.3243L50.4587 27.6131ZM50.3472 23.3966L48.6708 21.7006L47.9596 22.4035L49.636 24.0996L50.3472 23.3966ZM44.5912 21.6768L16.606 49.3382L17.309 50.0494L45.2941 22.388L44.5912 21.6768ZM16.5669 49.3817L10.1532 57.4093L10.9345 58.0335L17.3482 50.0059L16.5669 49.3817ZM20.0029 52.6917L11.9013 59.0116L12.5163 59.8001L20.618 53.4802L20.0029 52.6917ZM16.6019 50.0453L19.9548 53.4374L20.666 52.7345L17.3131 49.3423L16.6019 50.0453ZM10.1532 57.4093C8.90068 58.977 10.9342 61.0342 12.5163 59.8001L11.9013 59.0116C11.254 59.5165 10.422 58.6748 10.9345 58.0335L10.1532 57.4093ZM48.6708 21.7006C47.5508 20.5675 45.7243 20.5568 44.5912 21.6768L45.2941 22.388C46.0345 21.6563 47.2278 21.6632 47.9596 22.4035L48.6708 21.7006ZM50.4742 24.9476C51.206 25.688 51.199 26.8813 50.4587 27.6131L51.1617 28.3243C52.2948 27.2043 52.3054 25.3778 51.1854 24.2447L50.4742 24.9476ZM62 23.6579V77.1639H63V23.6579H62ZM117.033 143.579V86.1579H116.033V143.579H117.033ZM116.533 86.6579H120.312V85.6579H116.533V86.6579ZM112.738 77.6639C114.557 77.6639 116.033 79.1392 116.033 80.959H117.033C117.033 78.5869 115.11 76.6639 112.738 76.6639V77.6639ZM116.033 80.959V143.579H117.033V80.959H116.033ZM4.57638 77.6639H12.2088V76.6639H4.57638V77.6639ZM112.738 76.6639H107.031V77.6639H112.738V76.6639Z" fill="#000577"/>
<path d="M9.01889 62.108C7.7168 63.9309 6.36264 67.4205 11.3626 66.7955C17.6126 66.0142 42.6126 44.9203 52.7689 52.7328C62.9251 60.5453 51.9876 69.1388 51.9876 69.1388" stroke="#A8ABFF" stroke-linecap="round" stroke-linejoin="round"/>
<path d="M5.52368 75.6553C5.52368 74.2939 6.40786 73.0851 7.71029 72.6886C26.7567 66.8904 38.243 66.9339 57.8816 73.3691V143.579C38.8088 136.447 27.4332 135.585 9.84786 141.927C7.7664 142.678 5.52368 141.169 5.52368 138.956V75.6553Z" fill="#A8ABFF"/>
<path d="M59.4334 73.3691C78.7767 66.5918 90.2458 66.574 109.628 72.6752C110.917 73.0808 111.787 74.2826 111.787 75.6336V139.347C111.787 141.45 109.749 142.949 107.723 142.383C89.7786 137.37 78.423 138.014 59.4334 143.579V73.3691Z" fill="#A8ABFF"/>
<path d="M133.859 68.1889C125.377 68.1889 118.502 61.3291 118.502 52.8671C118.502 46.8702 121.955 41.6779 126.986 39.1617C127.951 38.6792 128.502 37.7347 128.502 36.6558V33.6338L139.217 33.6338V36.6558C139.217 37.7347 139.768 38.6792 140.733 39.1617C145.764 41.6779 149.217 46.8702 149.217 52.8671C149.217 61.3291 142.341 68.1889 133.859 68.1889Z" fill="#A8ABFF"/>
<path d="M128.487 33.3H127.987C127.987 33.5761 128.211 33.8 128.487 33.8V33.3ZM128.487 27.6688H128.987H128.487ZM129.976 26.1799V25.6799V26.1799ZM130.267 26.1799V26.6799V26.1799ZM131.434 25.2204L130.943 25.1237V25.1237L131.434 25.2204ZM131.493 24.9199L131.984 25.0165V25.0165L131.493 24.9199ZM139.202 33.3V33.8C139.478 33.8 139.702 33.5761 139.702 33.3H139.202ZM139.202 27.6688H139.702H139.202ZM137.713 26.1799V26.6799V26.1799ZM137.24 26.1799V25.6799V26.1799ZM136.073 25.2204L135.582 25.317L135.582 25.317L136.073 25.2204ZM136.014 24.9199L136.504 24.8233L136.504 24.8232L136.014 24.9199ZM126.899 51.8418L126.416 51.7126L126.899 51.8418ZM140.631 51.8335L141.114 51.7043L140.631 51.8335ZM127.133 53.1141L127.538 52.822L127.133 53.1141ZM127.766 53.9936L127.36 54.2858H127.36L127.766 53.9936ZM129.161 53.9077L129.6 54.1479L129.6 54.1479L129.161 53.9077ZM129.247 53.75L128.809 53.5098L128.809 53.5098L129.247 53.75ZM136.948 53.787L136.501 53.5633L136.501 53.5634L136.948 53.787ZM136.963 53.7567L137.41 53.9804L137.41 53.9803L136.963 53.7567ZM138.262 53.7363L138.702 53.4987L138.702 53.4987L138.262 53.7363ZM138.351 53.9008L137.911 54.1383L137.911 54.1383L138.351 53.9008ZM139.75 53.9958L139.346 53.7009L139.75 53.9958ZM140.391 53.1183L140.794 53.4132L140.391 53.1183ZM134.394 53.7929L133.948 53.5667L134.394 53.7929ZM135.671 53.7906L136.117 53.5645V53.5645L135.671 53.7906ZM130.548 53.7827L130.993 53.5566H130.993L130.548 53.7827ZM134.141 1C134.141 0.723858 133.917 0.5 133.641 0.5C133.365 0.5 133.141 0.723858 133.141 1H134.141ZM68.6232 91.8726C68.356 91.9426 68.1962 92.2158 68.2662 92.483C68.3362 92.7501 68.6095 92.9099 68.8766 92.8399L68.6232 91.8726ZM101.817 92.8412C102.085 92.9084 102.356 92.7457 102.423 92.4778C102.491 92.2099 102.328 91.9384 102.06 91.8712L101.817 92.8412ZM47.1243 92.8399C47.3914 92.9099 47.6647 92.7501 47.7347 92.483C47.8047 92.2158 47.6449 91.9426 47.3778 91.8726L47.1243 92.8399ZM13.9409 91.8712C13.6731 91.9384 13.5104 92.2099 13.5775 92.4778C13.6446 92.7457 13.9162 92.9084 14.1841 92.8412L13.9409 91.8712ZM129.976 26.6799H130.267V25.6799H129.976V26.6799ZM131.924 25.317L131.984 25.0165L131.003 24.8232L130.943 25.1237L131.924 25.317ZM137.713 25.6799H137.24V26.6799H137.713V25.6799ZM136.563 25.1238L136.504 24.8233L135.523 25.0165L135.582 25.317L136.563 25.1238ZM139.202 32.8H135.673V33.8H139.202V32.8ZM135.673 32.8H131.859V33.8H135.673V32.8ZM131.859 32.8H128.487V33.8H131.859V32.8ZM131.376 33.1708L126.416 51.7126L127.382 51.971L132.342 33.4292L131.376 33.1708ZM135.19 33.4292L140.148 51.9627L141.114 51.7043L136.156 33.1708L135.19 33.4292ZM126.727 53.4063L127.36 54.2858L128.172 53.7014L127.538 52.822L126.727 53.4063ZM129.6 54.1479L129.686 53.9902L128.809 53.5098L128.723 53.6675L129.6 54.1479ZM137.395 54.0107L137.41 53.9804L136.516 53.533L136.501 53.5633L137.395 54.0107ZM137.822 53.9738L137.911 54.1383L138.791 53.6632L138.702 53.4987L137.822 53.9738ZM140.154 54.2907L140.794 53.4132L139.987 52.8234L139.346 53.7009L140.154 54.2907ZM134.84 54.019C134.921 53.8591 135.147 53.8627 135.225 54.0168L136.117 53.5645C135.665 52.6743 134.397 52.6824 133.948 53.5667L134.84 54.019ZM132.28 54.0212C132.36 53.8624 132.587 53.8624 132.667 54.0212L133.559 53.5689C133.108 52.6798 131.839 52.6798 131.388 53.5689L132.28 54.0212ZM130.102 54.0089C130.544 54.8819 131.821 54.9262 132.28 54.0212L131.388 53.5689C131.315 53.7119 131.082 53.7314 130.993 53.5566L130.102 54.0089ZM129.686 53.9902C129.767 53.8416 130.01 53.8278 130.102 54.0089L130.993 53.5566C130.553 52.6882 129.293 52.6264 128.809 53.5098L129.686 53.9902ZM140.148 51.9627C140.227 52.2592 140.168 52.5756 139.987 52.8234L140.794 53.4132C141.154 52.9211 141.271 52.2929 141.114 51.7043L140.148 51.9627ZM126.416 51.7126C126.26 52.2952 126.374 52.917 126.727 53.4063L127.538 52.822C127.361 52.5761 127.304 52.2637 127.382 51.971L126.416 51.7126ZM136.504 24.8232C136.376 24.1721 136.002 23.5255 135.512 23.0405C135.024 22.5579 134.365 22.1817 133.641 22.1817V23.1817C134.017 23.1817 134.438 23.3847 134.809 23.7512C135.176 24.1153 135.439 24.5878 135.523 25.0165L136.504 24.8232ZM137.24 25.6799C136.91 25.6799 136.627 25.4469 136.563 25.1237L135.582 25.317C135.738 26.1089 136.433 26.6799 137.24 26.6799V25.6799ZM127.36 54.2858C127.93 55.0774 129.131 55.0034 129.6 54.1479L128.723 53.6675C128.607 53.878 128.312 53.8961 128.172 53.7014L127.36 54.2858ZM139.702 27.6688C139.702 26.5704 138.812 25.6799 137.713 25.6799V26.6799C138.259 26.6799 138.702 27.1227 138.702 27.6688H139.702ZM137.911 54.1383C138.375 54.9982 139.577 55.0798 140.154 54.2907L139.346 53.7009C139.203 53.8963 138.906 53.8761 138.791 53.6632L137.911 54.1383ZM131.984 25.0165C132.074 24.5569 132.299 24.0795 132.61 23.7258C132.92 23.3723 133.277 23.1817 133.641 23.1817V22.1817C132.904 22.1817 132.294 22.5703 131.858 23.0659C131.423 23.5613 131.125 24.203 131.003 24.8232L131.984 25.0165ZM137.41 53.9803C137.494 53.8123 137.733 53.8086 137.822 53.9738L138.702 53.4987C138.228 52.621 136.962 52.641 136.516 53.5331L137.41 53.9803ZM130.267 26.6799C131.074 26.6799 131.768 26.1089 131.924 25.317L130.943 25.1237C130.88 25.4469 130.596 25.6799 130.267 25.6799V26.6799ZM135.225 54.0168C135.676 54.9069 136.949 54.9032 137.395 54.0106L136.501 53.5634C136.422 53.7213 136.197 53.7219 136.117 53.5645L135.225 54.0168ZM128.987 27.6688C128.987 27.1227 129.43 26.6799 129.976 26.6799V25.6799C128.878 25.6799 127.987 26.5704 127.987 27.6688H128.987ZM132.667 54.0212C133.12 54.9132 134.391 54.9052 134.84 54.019L133.948 53.5667C133.866 53.7284 133.638 53.7249 133.559 53.5689L132.667 54.0212ZM128.987 33.3V27.6688H127.987V33.3H128.987ZM139.702 33.3V27.6688H138.702V33.3H139.702ZM68.8766 92.8399C80.588 89.7714 89.8406 89.8395 101.817 92.8412L102.06 91.8712C89.9301 88.831 80.5064 88.7591 68.6232 91.8726L68.8766 92.8399ZM47.3778 91.8726C35.4946 88.7591 26.0708 88.831 13.9409 91.8712L14.1841 92.8412C26.1603 89.8395 35.4129 89.7714 47.1243 92.8399L47.3778 91.8726ZM134.141 22.6817V1H133.141V22.6817H134.141Z" fill="#000577"/>
<path d="M68.7499 100.169C80.5472 97.0778 89.8854 97.1477 101.938 100.169M47.251 100.169C35.4537 97.0778 26.1156 97.1477 14.0625 100.169M68.7499 104.856C80.5472 101.765 89.8854 101.835 101.938 104.856M47.251 104.856C35.4537 101.765 26.1156 101.835 14.0625 104.856M68.7499 109.544C80.5472 106.453 89.8854 106.523 101.938 109.544M47.251 109.544C35.4537 106.453 26.1156 106.523 14.0625 109.544M68.7499 114.231C80.5472 111.14 89.8854 111.21 101.938 114.231M47.251 114.231C35.4537 111.14 26.1156 111.21 14.0625 114.231" stroke="white" stroke-linecap="round" stroke-linejoin="round"/>
<circle cx="150.5" cy="131.5" r="21" fill="white" stroke="#202588"/>
<path d="M151.591 120C152.637 120 153.484 120.616 153.484 121.375L153.484 128.516L160.625 128.516C161.384 128.516 162 129.364 162 130.409V131.591C162 132.637 161.384 133.484 160.625 133.484L153.484 133.484L153.484 140.625C153.484 141.384 152.637 142 151.591 142H150.409C149.363 142 148.516 141.384 148.516 140.625L148.516 133.484L141.375 133.484C140.616 133.484 140 132.637 140 131.591V130.409C140 129.364 140.616 128.516 141.375 128.516L148.516 128.516L148.516 121.375C148.516 120.616 149.363 120 150.409 120H151.591Z" fill="#6277D7"/>
<path d="M148.516 128.516L141.375 128.516C140.616 128.516 140 129.364 140 130.409L140 131.591C140 132.637 140.616 133.484 141.375 133.484L148.516 133.484M148.516 128.516L148.516 121.375C148.516 120.616 149.363 120 150.409 120L151.591 120C152.637 120 153.484 120.616 153.484 121.375L153.484 128.516M148.516 128.516L148.516 133.484M153.484 128.516L160.625 128.516C161.384 128.516 162 129.364 162 130.409V131.591C162 132.637 161.384 133.484 160.625 133.484L153.484 133.484M153.484 128.516L153.484 133.484M153.484 133.484L153.484 140.625C153.484 141.384 152.637 142 151.591 142L150.409 142C149.363 142 148.516 141.384 148.516 140.625L148.516 133.484" stroke="#6277D7" stroke-linecap="round" stroke-linejoin="round"/>
</svg>
